<svg width="24" height="25" viewBox="0 0 24 25" fill="none" xmlns="http://www.w3.org/2000/svg">
<g id="Layer_x0020_1">
<g id="_1421344023328">
<path id="Vector" d="M23.6396 14.9848C22.0369 21.4135 15.5258 25.3258 9.09638 23.7227C2.66967 22.12 -1.24267 15.6084 0.360725 9.18034C1.96271 2.751 8.47387 -1.16164 14.9013 0.441051C21.3302 2.04374 25.2423 8.55602 23.6394 14.9849L23.6396 14.9848H23.6396Z" fill="#F7931A"/>
<path id="Vector_2" d="M17.2915 10.3723C17.5303 8.77532 16.3145 7.91691 14.652 7.34426L15.1913 5.18107L13.8745 4.85295L13.3495 6.95919C13.0033 6.87285 12.6478 6.79149 12.2945 6.71084L12.8233 4.5907L11.5073 4.26259L10.9677 6.42508C10.6812 6.35985 10.3999 6.29539 10.1269 6.22747L10.1284 6.22066L8.31252 5.7672L7.96223 7.17363C7.96223 7.17363 8.93919 7.39758 8.9186 7.41136C9.45183 7.54445 9.54826 7.89743 9.53225 8.17722L8.91789 10.6416C8.95461 10.6509 9.00224 10.6644 9.05479 10.6855C9.01086 10.6746 8.96411 10.6627 8.91561 10.6511L8.05449 14.1034C7.98933 14.2654 7.82392 14.5085 7.45111 14.4162C7.46431 14.4353 6.49404 14.1773 6.49404 14.1773L5.84027 15.6846L7.55387 16.1118C7.87266 16.1918 8.18506 16.2754 8.4927 16.3541L7.9478 18.5421L9.26308 18.8702L9.8027 16.7054C10.162 16.8029 10.5107 16.8929 10.8521 16.9777L10.3143 19.1323L11.6312 19.4604L12.176 17.2765C14.4214 17.7015 16.1098 17.5301 16.8205 15.4992C17.3931 13.864 16.792 12.9208 15.6107 12.3058C16.4711 12.1073 17.1191 11.5414 17.2919 10.3724L17.2915 10.3721L17.2915 10.3723ZM14.2829 14.5911C13.8759 16.2263 11.1228 15.3423 10.2302 15.1207L10.9533 12.2219C11.8458 12.4448 14.7082 12.8857 14.2829 14.5911H14.2829ZM14.6901 10.3486C14.3189 11.8359 12.0274 11.0803 11.2841 10.895L11.9397 8.26602C12.683 8.45131 15.0768 8.79714 14.6902 10.3486H14.6901Z" fill="white"/>
</g>
</g>
</svg>
