<svg width="224" height="58" viewBox="0 0 224 58" fill="none" xmlns="http://www.w3.org/2000/svg">
<rect width="32" height="32" rx="16" fill="#00FFA3"/>
<g clip-path="url(#clip0_0_1846)">
<path d="M15.9978 4L15.8368 4.54693V20.4161L15.9978 20.5767L23.364 16.2225L15.9978 4Z" fill="#343434"/>
<path d="M15.9978 4L8.63147 16.2225L15.9978 20.5767V12.8743V4Z" fill="#8C8C8C"/>
<path d="M15.9979 21.9714L15.9071 22.082V27.7349L15.9979 27.9998L23.3685 17.6194L15.9979 21.9714Z" fill="#3C3C3B"/>
<path d="M15.9978 27.9998V21.9714L8.63147 17.6194L15.9978 27.9998Z" fill="#8C8C8C"/>
<path d="M15.9978 20.5767L23.3639 16.2225L15.9978 12.8743V20.5767Z" fill="#141414"/>
<path d="M8.63147 16.2225L15.9978 20.5767V12.8743L8.63147 16.2225Z" fill="#393939"/>
</g>
<path d="M45.1477 22V10.3636H52.7159V12.1307H47.2557V15.2898H52.3239V17.0568H47.2557V20.233H52.7614V22H45.1477ZM59.1335 13.2727V14.8636H54.1165V13.2727H59.1335ZM55.3551 11.1818H57.4119V19.375C57.4119 19.6515 57.4536 19.8636 57.5369 20.0114C57.6241 20.1553 57.7377 20.2538 57.8778 20.3068C58.018 20.3598 58.1733 20.3864 58.3438 20.3864C58.4725 20.3864 58.59 20.3769 58.696 20.358C58.8059 20.339 58.8892 20.322 58.946 20.3068L59.2926 21.9148C59.1828 21.9527 59.0256 21.9943 58.821 22.0398C58.6203 22.0852 58.3741 22.1117 58.0824 22.1193C57.5672 22.1345 57.1032 22.0568 56.6903 21.8864C56.2775 21.7121 55.9498 21.4432 55.7074 21.0795C55.4688 20.7159 55.3513 20.2614 55.3551 19.7159V11.1818ZM63.098 16.8864V22H61.0412V10.3636H63.0526V14.7557H63.1548C63.3594 14.2633 63.6757 13.875 64.1037 13.5909C64.5355 13.303 65.0848 13.1591 65.7514 13.1591C66.3575 13.1591 66.8859 13.286 67.3366 13.5398C67.7874 13.7936 68.1359 14.1648 68.3821 14.6534C68.6321 15.142 68.7571 15.7386 68.7571 16.4432V22H66.7003V16.7614C66.7003 16.1742 66.5488 15.7178 66.2457 15.392C65.9465 15.0625 65.526 14.8977 64.9844 14.8977C64.6207 14.8977 64.295 14.9773 64.0071 15.1364C63.723 15.2917 63.4995 15.517 63.3366 15.8125C63.1776 16.108 63.098 16.4659 63.098 16.8864ZM74.7173 22.1705C73.8423 22.1705 73.0866 21.9886 72.4503 21.625C71.8177 21.2576 71.331 20.7386 70.9901 20.0682C70.6491 19.3939 70.4787 18.6004 70.4787 17.6875C70.4787 16.7898 70.6491 16.0019 70.9901 15.3239C71.3348 14.642 71.8158 14.1117 72.4332 13.733C73.0507 13.3504 73.776 13.1591 74.6094 13.1591C75.1473 13.1591 75.6548 13.2462 76.1321 13.4205C76.6132 13.5909 77.0374 13.8561 77.4048 14.2159C77.776 14.5758 78.0677 15.0341 78.2798 15.5909C78.492 16.1439 78.598 16.803 78.598 17.5682V18.1989H71.4446V16.8125H76.6264C76.6226 16.4186 76.5374 16.0682 76.3707 15.7614C76.2041 15.4508 75.9711 15.2064 75.6719 15.0284C75.3764 14.8504 75.0317 14.7614 74.6378 14.7614C74.2173 14.7614 73.848 14.8636 73.5298 15.0682C73.2116 15.2689 72.9635 15.5341 72.7855 15.8636C72.6113 16.1894 72.5223 16.5473 72.5185 16.9375V18.1477C72.5185 18.6553 72.6113 19.0909 72.7969 19.4545C72.9825 19.8144 73.242 20.0909 73.5753 20.2841C73.9086 20.4735 74.2988 20.5682 74.7457 20.5682C75.045 20.5682 75.3158 20.5265 75.5582 20.4432C75.8007 20.3561 76.0109 20.2292 76.1889 20.0625C76.367 19.8958 76.5014 19.6894 76.5923 19.4432L78.5128 19.6591C78.3916 20.1667 78.1605 20.6098 77.8196 20.9886C77.4825 21.3636 77.0507 21.6553 76.5241 21.8636C75.9976 22.0682 75.3954 22.1705 74.7173 22.1705ZM80.3381 22V13.2727H82.3324V14.7273H82.4233C82.5824 14.2235 82.8551 13.8352 83.2415 13.5625C83.6316 13.286 84.0767 13.1477 84.5767 13.1477C84.6903 13.1477 84.8172 13.1534 84.9574 13.1648C85.1013 13.1723 85.2206 13.1856 85.3153 13.2045V15.0966C85.2282 15.0663 85.09 15.0398 84.9006 15.017C84.715 14.9905 84.535 14.9773 84.3608 14.9773C83.9858 14.9773 83.6487 15.0587 83.3494 15.2216C83.054 15.3807 82.821 15.6023 82.6506 15.8864C82.4801 16.1705 82.3949 16.4981 82.3949 16.8693V22H80.3381ZM90.1861 22.1705C89.3111 22.1705 88.5554 21.9886 87.919 21.625C87.2865 21.2576 86.7997 20.7386 86.4588 20.0682C86.1179 19.3939 85.9474 18.6004 85.9474 17.6875C85.9474 16.7898 86.1179 16.0019 86.4588 15.3239C86.8035 14.642 87.2846 14.1117 87.902 13.733C88.5194 13.3504 89.2448 13.1591 90.0781 13.1591C90.616 13.1591 91.1236 13.2462 91.6009 13.4205C92.0819 13.5909 92.5062 13.8561 92.8736 14.2159C93.2448 14.5758 93.5365 15.0341 93.7486 15.5909C93.9607 16.1439 94.0668 16.803 94.0668 17.5682V18.1989H86.9134V16.8125H92.0952C92.0914 16.4186 92.0062 16.0682 91.8395 15.7614C91.6728 15.4508 91.4399 15.2064 91.1406 15.0284C90.8452 14.8504 90.5005 14.7614 90.1065 14.7614C89.6861 14.7614 89.3168 14.8636 88.9986 15.0682C88.6804 15.2689 88.4323 15.5341 88.2543 15.8636C88.08 16.1894 87.991 16.5473 87.9872 16.9375V18.1477C87.9872 18.6553 88.08 19.0909 88.2656 19.4545C88.4512 19.8144 88.7107 20.0909 89.044 20.2841C89.3774 20.4735 89.7675 20.5682 90.2145 20.5682C90.5137 20.5682 90.7846 20.5265 91.027 20.4432C91.2694 20.3561 91.4796 20.2292 91.6577 20.0625C91.8357 19.8958 91.9702 19.6894 92.0611 19.4432L93.9815 19.6591C93.8603 20.1667 93.6293 20.6098 93.2884 20.9886C92.9512 21.3636 92.5194 21.6553 91.9929 21.8636C91.4664 22.0682 90.8641 22.1705 90.1861 22.1705ZM101.369 18.3295V13.2727H103.426V22H101.432V20.4489H101.341C101.144 20.9375 100.82 21.3371 100.369 21.6477C99.9223 21.9583 99.3712 22.1136 98.7159 22.1136C98.1439 22.1136 97.6383 21.9867 97.1989 21.733C96.7633 21.4754 96.4223 21.1023 96.1761 20.6136C95.9299 20.1212 95.8068 19.5265 95.8068 18.8295V13.2727H97.8636V18.5114C97.8636 19.0644 98.0152 19.5038 98.3182 19.8295C98.6212 20.1553 99.0189 20.3182 99.5114 20.3182C99.8144 20.3182 100.108 20.2443 100.392 20.0966C100.676 19.9489 100.909 19.7292 101.091 19.4375C101.277 19.142 101.369 18.7727 101.369 18.3295ZM105.541 22V13.2727H107.507V14.7557H107.609C107.791 14.2557 108.092 13.8655 108.513 13.5852C108.933 13.3011 109.435 13.1591 110.018 13.1591C110.609 13.1591 111.107 13.303 111.513 13.5909C111.922 13.875 112.21 14.2633 112.376 14.7557H112.467C112.661 14.2708 112.986 13.8845 113.445 13.5966C113.907 13.3049 114.454 13.1591 115.087 13.1591C115.89 13.1591 116.545 13.4129 117.053 13.9205C117.56 14.428 117.814 15.1686 117.814 16.142V22H115.751V16.4602C115.751 15.9186 115.607 15.5227 115.32 15.2727C115.032 15.0189 114.679 14.892 114.263 14.892C113.767 14.892 113.378 15.0473 113.098 15.358C112.821 15.6648 112.683 16.0644 112.683 16.5568V22H110.666V16.375C110.666 15.9242 110.53 15.5644 110.257 15.2955C109.988 15.0265 109.636 14.892 109.2 14.892C108.905 14.892 108.636 14.9678 108.393 15.1193C108.151 15.267 107.958 15.4773 107.814 15.75C107.67 16.0189 107.598 16.3333 107.598 16.6932V22H105.541Z" fill="white"/>
<path d="M169.143 23.4545V8.90909H170.075V23.4545H169.143ZM171.831 13.5625C171.778 13.0663 171.554 12.6799 171.161 12.4034C170.77 12.1269 170.263 11.9886 169.638 11.9886C169.198 11.9886 168.821 12.0549 168.507 12.1875C168.193 12.3201 167.952 12.5 167.786 12.7273C167.619 12.9545 167.534 13.214 167.53 13.5057C167.53 13.7481 167.585 13.9583 167.695 14.1364C167.808 14.3144 167.962 14.4659 168.155 14.5909C168.348 14.7121 168.562 14.8144 168.797 14.8977C169.032 14.9811 169.268 15.0511 169.507 15.108L170.598 15.3807C171.037 15.483 171.46 15.6212 171.865 15.7955C172.274 15.9697 172.64 16.1894 172.962 16.4545C173.287 16.7197 173.545 17.0398 173.734 17.4148C173.924 17.7898 174.018 18.2292 174.018 18.733C174.018 19.4148 173.844 20.0152 173.496 20.5341C173.147 21.0492 172.643 21.4527 171.984 21.7443C171.329 22.0322 170.536 22.1761 169.604 22.1761C168.698 22.1761 167.912 22.036 167.246 21.7557C166.583 21.4754 166.064 21.0663 165.689 20.5284C165.318 19.9905 165.117 19.3352 165.087 18.5625H167.161C167.191 18.9678 167.316 19.3049 167.536 19.5739C167.755 19.8428 168.041 20.0436 168.393 20.1761C168.75 20.3087 169.147 20.375 169.587 20.375C170.045 20.375 170.446 20.3068 170.791 20.1705C171.14 20.0303 171.412 19.8371 171.609 19.5909C171.806 19.3409 171.907 19.0492 171.911 18.7159C171.907 18.4129 171.818 18.1629 171.643 17.9659C171.469 17.7652 171.225 17.5985 170.911 17.4659C170.6 17.3295 170.236 17.2083 169.82 17.1023L168.496 16.7614C167.537 16.5152 166.78 16.142 166.223 15.642C165.67 15.1383 165.393 14.4697 165.393 13.6364C165.393 12.9508 165.579 12.3504 165.95 11.8352C166.325 11.3201 166.835 10.9205 167.479 10.6364C168.123 10.3485 168.852 10.2045 169.666 10.2045C170.492 10.2045 171.215 10.3485 171.837 10.6364C172.462 10.9205 172.952 11.3163 173.308 11.8239C173.664 12.3277 173.848 12.9072 173.859 13.5625H171.831ZM179.753 22V20.4773L183.793 16.517C184.179 16.1269 184.501 15.7803 184.759 15.4773C185.016 15.1742 185.209 14.8807 185.338 14.5966C185.467 14.3125 185.531 14.0095 185.531 13.6875C185.531 13.3201 185.448 13.0057 185.281 12.7443C185.115 12.4792 184.885 12.2746 184.594 12.1307C184.302 11.9867 183.971 11.9148 183.599 11.9148C183.217 11.9148 182.882 11.9943 182.594 12.1534C182.306 12.3087 182.082 12.5303 181.923 12.8182C181.768 13.1061 181.69 13.4489 181.69 13.8466H179.685C179.685 13.108 179.853 12.4659 180.19 11.9205C180.527 11.375 180.991 10.9527 181.582 10.6534C182.177 10.3542 182.859 10.2045 183.628 10.2045C184.408 10.2045 185.094 10.3504 185.685 10.642C186.276 10.9337 186.734 11.3333 187.06 11.8409C187.389 12.3485 187.554 12.928 187.554 13.5795C187.554 14.0152 187.471 14.4432 187.304 14.8636C187.137 15.2841 186.844 15.75 186.423 16.2614C186.007 16.7727 185.421 17.392 184.668 18.1193L182.662 20.1591V20.2386H187.73V22H179.753ZM193.866 22.1591C193.048 22.1591 192.321 22.0189 191.685 21.7386C191.052 21.4583 190.552 21.0682 190.185 20.5682C189.817 20.0682 189.622 19.4905 189.599 18.8352H191.736C191.755 19.1496 191.859 19.4242 192.048 19.6591C192.238 19.8902 192.49 20.0701 192.804 20.1989C193.118 20.3277 193.471 20.392 193.861 20.392C194.277 20.392 194.647 20.3201 194.969 20.1761C195.291 20.0284 195.543 19.8239 195.724 19.5625C195.906 19.3011 195.995 19 195.991 18.6591C195.995 18.3068 195.904 17.9962 195.719 17.7273C195.533 17.4583 195.264 17.2481 194.912 17.0966C194.563 16.9451 194.143 16.8693 193.651 16.8693H192.622V15.2443H193.651C194.056 15.2443 194.41 15.1742 194.713 15.0341C195.02 14.8939 195.26 14.697 195.435 14.4432C195.609 14.1856 195.694 13.8883 195.69 13.5511C195.694 13.2216 195.62 12.9356 195.469 12.6932C195.321 12.447 195.111 12.2557 194.838 12.1193C194.569 11.983 194.253 11.9148 193.889 11.9148C193.533 11.9148 193.204 11.9792 192.901 12.108C192.598 12.2367 192.353 12.4205 192.168 12.6591C191.982 12.8939 191.884 13.1742 191.872 13.5H189.844C189.859 12.8485 190.046 12.2765 190.406 11.7841C190.77 11.2879 191.255 10.9015 191.861 10.625C192.467 10.3447 193.147 10.2045 193.901 10.2045C194.677 10.2045 195.351 10.3504 195.923 10.642C196.499 10.9299 196.944 11.3182 197.259 11.8068C197.573 12.2955 197.73 12.8352 197.73 13.4261C197.734 14.0814 197.541 14.6307 197.151 15.0739C196.764 15.517 196.257 15.8068 195.628 15.9432V16.0341C196.446 16.1477 197.073 16.4508 197.509 16.9432C197.948 17.4318 198.166 18.0398 198.162 18.767C198.162 19.4186 197.976 20.0019 197.605 20.517C197.238 21.0284 196.73 21.4299 196.082 21.7216C195.438 22.0133 194.7 22.1591 193.866 22.1591ZM202.206 20.4091L202.132 21.0341C202.079 21.5114 201.984 21.9962 201.848 22.4886C201.715 22.9848 201.575 23.4413 201.428 23.858C201.28 24.2746 201.161 24.6023 201.07 24.8409H199.683C199.736 24.6098 199.808 24.2955 199.899 23.8977C199.994 23.5 200.085 23.053 200.172 22.5568C200.259 22.0606 200.318 21.5568 200.348 21.0455L200.388 20.4091H202.206ZM208.273 22.1591C207.455 22.1591 206.727 22.0189 206.091 21.7386C205.458 21.4583 204.958 21.0682 204.591 20.5682C204.223 20.0682 204.028 19.4905 204.006 18.8352H206.142C206.161 19.1496 206.265 19.4242 206.455 19.6591C206.644 19.8902 206.896 20.0701 207.21 20.1989C207.525 20.3277 207.877 20.392 208.267 20.392C208.684 20.392 209.053 20.3201 209.375 20.1761C209.697 20.0284 209.949 19.8239 210.131 19.5625C210.313 19.3011 210.402 19 210.398 18.6591C210.402 18.3068 210.311 17.9962 210.125 17.7273C209.939 17.4583 209.67 17.2481 209.318 17.0966C208.97 16.9451 208.549 16.8693 208.057 16.8693H207.028V15.2443H208.057C208.462 15.2443 208.816 15.1742 209.119 15.0341C209.426 14.8939 209.667 14.697 209.841 14.4432C210.015 14.1856 210.1 13.8883 210.097 13.5511C210.1 13.2216 210.027 12.9356 209.875 12.6932C209.727 12.447 209.517 12.2557 209.244 12.1193C208.975 11.983 208.659 11.9148 208.295 11.9148C207.939 11.9148 207.61 11.9792 207.307 12.108C207.004 12.2367 206.759 12.4205 206.574 12.6591C206.388 12.8939 206.29 13.1742 206.278 13.5H204.25C204.265 12.8485 204.453 12.2765 204.812 11.7841C205.176 11.2879 205.661 10.9015 206.267 10.625C206.873 10.3447 207.553 10.2045 208.307 10.2045C209.083 10.2045 209.758 10.3504 210.33 10.642C210.905 10.9299 211.35 11.3182 211.665 11.8068C211.979 12.2955 212.136 12.8352 212.136 13.4261C212.14 14.0814 211.947 14.6307 211.557 15.0739C211.17 15.517 210.663 15.8068 210.034 15.9432V16.0341C210.852 16.1477 211.479 16.4508 211.915 16.9432C212.354 17.4318 212.572 18.0398 212.568 18.767C212.568 19.4186 212.383 20.0019 212.011 20.517C211.644 21.0284 211.136 21.4299 210.489 21.7216C209.845 22.0133 209.106 22.1591 208.273 22.1591ZM214.632 22V10.3636H219.087C219.928 10.3636 220.626 10.4962 221.183 10.7614C221.744 11.0227 222.162 11.3807 222.439 11.8352C222.719 12.2898 222.859 12.8049 222.859 13.3807C222.859 13.8542 222.768 14.2595 222.587 14.5966C222.405 14.9299 222.161 15.2008 221.854 15.4091C221.547 15.6174 221.204 15.767 220.825 15.858V15.9716C221.238 15.9943 221.634 16.1212 222.013 16.3523C222.395 16.5795 222.708 16.9015 222.95 17.3182C223.193 17.7348 223.314 18.2386 223.314 18.8295C223.314 19.4318 223.168 19.9735 222.876 20.4545C222.585 20.9318 222.145 21.3087 221.558 21.5852C220.971 21.8617 220.232 22 219.342 22H214.632ZM216.74 20.2386H219.007C219.772 20.2386 220.323 20.0928 220.661 19.8011C221.001 19.5057 221.172 19.1269 221.172 18.6648C221.172 18.3201 221.087 18.0095 220.916 17.733C220.746 17.4527 220.503 17.233 220.189 17.0739C219.875 16.911 219.5 16.8295 219.064 16.8295H216.74V20.2386ZM216.74 15.3125H218.825C219.189 15.3125 219.517 15.2462 219.808 15.1136C220.1 14.9773 220.329 14.786 220.496 14.5398C220.666 14.2898 220.751 13.9943 220.751 13.6534C220.751 13.2027 220.592 12.8314 220.274 12.5398C219.96 12.2481 219.492 12.1023 218.871 12.1023H216.74V15.3125Z" fill="white"/>
<path d="M178.182 55L182.626 46.2102V46.1357H177.486V44.8182H184.217V46.1804L179.788 55H178.182ZM189.809 44.8182V55H188.268V46.3594H188.208L185.772 47.9503V46.4787L188.313 44.8182H189.809ZM193.929 53.608L193.855 54.1499C193.805 54.5476 193.721 54.9619 193.601 55.3928C193.485 55.8269 193.364 56.2296 193.238 56.6009C193.116 56.9721 193.015 57.267 192.935 57.4858H191.881C191.924 57.2803 191.984 57.0019 192.06 56.6506C192.136 56.3026 192.211 55.9131 192.284 55.4822C192.357 55.0514 192.411 54.6122 192.448 54.1648L192.498 53.608H193.929ZM199.194 55.1392C198.74 55.1326 198.293 55.0497 197.852 54.8906C197.414 54.7315 197.017 54.4664 196.659 54.0952C196.301 53.724 196.014 53.2251 195.799 52.5987C195.587 51.9723 195.48 51.1901 195.48 50.2521C195.48 49.3639 195.568 48.575 195.744 47.8857C195.923 47.1963 196.18 46.6146 196.515 46.1406C196.849 45.6634 197.254 45.3004 197.728 45.0518C198.202 44.8033 198.734 44.679 199.324 44.679C199.93 44.679 200.469 44.7983 200.939 45.0369C201.41 45.2756 201.791 45.6054 202.083 46.0263C202.378 46.4472 202.565 46.9261 202.645 47.4631H201.128C201.025 47.0388 200.822 46.6925 200.517 46.424C200.212 46.1555 199.814 46.0213 199.324 46.0213C198.578 46.0213 197.996 46.3461 197.578 46.9957C197.164 47.6454 196.955 48.5485 196.952 49.7053H197.027C197.202 49.4169 197.418 49.1716 197.673 48.9695C197.931 48.764 198.22 48.6065 198.538 48.4972C198.859 48.3845 199.198 48.3281 199.552 48.3281C200.142 48.3281 200.676 48.4723 201.153 48.7607C201.634 49.0457 202.016 49.4401 202.301 49.9439C202.587 50.4477 202.729 51.0244 202.729 51.674C202.729 52.3236 202.582 52.9119 202.287 53.4389C201.995 53.9659 201.584 54.3835 201.054 54.6918C200.523 54.9967 199.904 55.1458 199.194 55.1392ZM199.189 53.8466C199.58 53.8466 199.93 53.7505 200.238 53.5582C200.547 53.366 200.79 53.1075 200.969 52.7827C201.148 52.4579 201.238 52.0949 201.238 51.6939C201.238 51.3028 201.15 50.9465 200.974 50.625C200.802 50.3035 200.563 50.0483 200.258 49.8594C199.957 49.6705 199.612 49.576 199.224 49.576C198.929 49.576 198.656 49.6323 198.404 49.745C198.155 49.8577 197.936 50.0135 197.748 50.2124C197.559 50.4112 197.409 50.6399 197.3 50.8984C197.194 51.1536 197.141 51.4238 197.141 51.7088C197.141 52.09 197.229 52.4429 197.404 52.7678C197.583 53.0926 197.827 53.3544 198.135 53.5533C198.447 53.7488 198.798 53.8466 199.189 53.8466ZM207.98 55.1392C207.268 55.1392 206.638 55.0166 206.091 54.7713C205.548 54.526 205.122 54.188 204.813 53.7571C204.505 53.3262 204.353 52.8357 204.356 52.2855C204.353 51.8546 204.441 51.4586 204.619 51.0973C204.802 50.7327 205.049 50.4295 205.36 50.1875C205.672 49.9422 206.02 49.7865 206.404 49.7202V49.6605C205.897 49.5379 205.491 49.2661 205.186 48.8452C204.881 48.4242 204.731 47.9403 204.734 47.3935C204.731 46.8731 204.868 46.4091 205.146 46.0014C205.428 45.5904 205.814 45.2673 206.305 45.032C206.795 44.7966 207.354 44.679 207.98 44.679C208.6 44.679 209.154 44.7983 209.641 45.0369C210.131 45.2723 210.517 45.5954 210.799 46.0064C211.081 46.4141 211.223 46.8764 211.227 47.3935C211.223 47.9403 211.068 48.4242 210.759 48.8452C210.451 49.2661 210.05 49.5379 209.556 49.6605V49.7202C209.937 49.7865 210.28 49.9422 210.585 50.1875C210.894 50.4295 211.139 50.7327 211.321 51.0973C211.507 51.4586 211.601 51.8546 211.605 52.2855C211.601 52.8357 211.445 53.3262 211.137 53.7571C210.829 54.188 210.401 54.526 209.855 54.7713C209.311 55.0166 208.686 55.1392 207.98 55.1392ZM207.98 53.8814C208.401 53.8814 208.766 53.8118 209.074 53.6726C209.382 53.5301 209.621 53.3329 209.79 53.081C209.959 52.8258 210.045 52.5275 210.048 52.1861C210.045 51.8314 209.952 51.5182 209.77 51.2464C209.591 50.9747 209.347 50.7609 209.039 50.6051C208.731 50.4493 208.378 50.3714 207.98 50.3714C207.579 50.3714 207.223 50.4493 206.911 50.6051C206.6 50.7609 206.355 50.9747 206.176 51.2464C205.997 51.5182 205.909 51.8314 205.912 52.1861C205.909 52.5275 205.99 52.8258 206.156 53.081C206.325 53.3329 206.565 53.5301 206.877 53.6726C207.188 53.8118 207.556 53.8814 207.98 53.8814ZM207.98 49.1435C208.318 49.1435 208.618 49.0755 208.88 48.9396C209.142 48.8037 209.347 48.6148 209.497 48.3729C209.649 48.1309 209.727 47.8475 209.73 47.5227C209.727 47.2045 209.651 46.9261 209.502 46.6875C209.356 46.4489 209.152 46.2649 208.89 46.1357C208.628 46.0031 208.325 45.9368 207.98 45.9368C207.629 45.9368 207.321 46.0031 207.056 46.1357C206.794 46.2649 206.59 46.4489 206.444 46.6875C206.298 46.9261 206.227 47.2045 206.23 47.5227C206.227 47.8475 206.3 48.1309 206.449 48.3729C206.598 48.6148 206.804 48.8037 207.066 48.9396C207.331 49.0755 207.636 49.1435 207.98 49.1435ZM218.7 53.0909V52.554C218.7 52.1695 218.78 51.8182 218.939 51.5C219.101 51.1785 219.337 50.9216 219.645 50.7294C219.956 50.5339 220.333 50.4361 220.773 50.4361C221.224 50.4361 221.602 50.5322 221.907 50.7244C222.212 50.9167 222.442 51.1735 222.598 51.495C222.757 51.8165 222.837 52.1695 222.837 52.554V53.0909C222.837 53.4754 222.757 53.8284 222.598 54.1499C222.439 54.468 222.205 54.7249 221.897 54.9205C221.592 55.1127 221.218 55.2088 220.773 55.2088C220.326 55.2088 219.948 55.1127 219.64 54.9205C219.332 54.7249 219.098 54.468 218.939 54.1499C218.78 53.8284 218.7 53.4754 218.7 53.0909ZM219.859 52.554V53.0909C219.859 53.3759 219.927 53.6345 220.062 53.8665C220.198 54.0985 220.435 54.2145 220.773 54.2145C221.108 54.2145 221.342 54.0985 221.474 53.8665C221.607 53.6345 221.673 53.3759 221.673 53.0909V52.554C221.673 52.2689 221.609 52.0104 221.479 51.7784C221.353 51.5464 221.118 51.4304 220.773 51.4304C220.442 51.4304 220.207 51.5464 220.067 51.7784C219.928 52.0104 219.859 52.2689 219.859 52.554ZM213.58 47.2642V46.7273C213.58 46.3428 213.659 45.9898 213.818 45.6683C213.981 45.3468 214.216 45.09 214.524 44.8977C214.836 44.7055 215.212 44.6094 215.653 44.6094C216.103 44.6094 216.481 44.7055 216.786 44.8977C217.091 45.09 217.321 45.3468 217.477 45.6683C217.633 45.9898 217.711 46.3428 217.711 46.7273V47.2642C217.711 47.6487 217.631 48.0017 217.472 48.3232C217.317 48.6413 217.085 48.8982 216.776 49.0938C216.471 49.286 216.097 49.3821 215.653 49.3821C215.202 49.3821 214.822 49.286 214.514 49.0938C214.209 48.8982 213.977 48.6413 213.818 48.3232C213.659 48.0017 213.58 47.6487 213.58 47.2642ZM214.743 46.7273V47.2642C214.743 47.5492 214.809 47.8078 214.942 48.0398C215.078 48.2718 215.315 48.3878 215.653 48.3878C215.984 48.3878 216.216 48.2718 216.349 48.0398C216.485 47.8078 216.553 47.5492 216.553 47.2642V46.7273C216.553 46.4422 216.488 46.1837 216.359 45.9517C216.229 45.7197 215.994 45.6037 215.653 45.6037C215.321 45.6037 215.086 45.7197 214.947 45.9517C214.811 46.1837 214.743 46.4422 214.743 46.7273ZM214.052 55L221.052 44.8182H222.24L215.24 55H214.052Z" fill="white"/>
<rect y="46" width="168" height="8" rx="4" fill="#353535"/>
<rect y="46" width="120" height="8" rx="4" fill="url(#paint0_linear_0_1846)"/>
<defs>
<linearGradient id="paint0_linear_0_1846" x1="60" y1="46" x2="60" y2="54" gradientUnits="userSpaceOnUse">
<stop stop-color="#5CFF9C"/>
<stop offset="1" stop-color="#00FFA3"/>
</linearGradient>
<clipPath id="clip0_0_1846">
<rect width="24" height="24" fill="white" transform="translate(4 4)"/>
</clipPath>
</defs>
</svg>
