<svg width="34" height="35" viewBox="0 0 34 35" fill="none" xmlns="http://www.w3.org/2000/svg">
<rect y="0.967209" width="34" height="34" rx="17" fill="url(#paint0_linear_0_1870)"/>
<g clip-path="url(#clip0_0_1870)">
<path d="M16.9978 5.96721L16.8368 6.51414V22.3833L16.9978 22.5439L24.364 18.1898L16.9978 5.96721Z" fill="#343434"/>
<path d="M16.9978 5.96721L9.6315 18.1898L16.9978 22.5439V14.8415V5.96721Z" fill="#8C8C8C"/>
<path d="M16.9978 23.9386L16.9071 24.0493V29.7021L16.9978 29.967L24.3685 19.5867L16.9978 23.9386Z" fill="#3C3C3B"/>
<path d="M16.9978 29.967V23.9386L9.6315 19.5867L16.9978 29.967Z" fill="#8C8C8C"/>
<path d="M16.9978 22.5439L24.364 18.1898L16.9978 14.8415V22.5439Z" fill="#141414"/>
<path d="M9.6315 18.1898L16.9978 22.5439V14.8415L9.6315 18.1898Z" fill="#393939"/>
</g>
<defs>
<linearGradient id="paint0_linear_0_1870" x1="5.02273" y1="0.967209" x2="30.5227" y2="36.899" gradientUnits="userSpaceOnUse">
<stop stop-color="white"/>
<stop offset="1" stop-color="#D9D9D9" stop-opacity="0.71"/>
</linearGradient>
<clipPath id="clip0_0_1870">
<rect width="24" height="24" fill="white" transform="translate(5 5.96721)"/>
</clipPath>
</defs>
</svg>
