<svg width="32" height="32" viewBox="0 0 32 32" fill="none" xmlns="http://www.w3.org/2000/svg">
<path d="M25.7334 10.5599V17.4266C25.7334 21.5333 23.3868 23.2933 19.8668 23.2933H8.14668C7.54668 23.2933 6.97336 23.2399 6.44003 23.1199C6.1067 23.0666 5.7867 22.9733 5.49336 22.8666C3.49336 22.1199 2.28003 20.3866 2.28003 17.4266V10.5599C2.28003 6.45324 4.62668 4.6933 8.14668 4.6933H19.8668C22.8534 4.6933 25.0001 5.95995 25.5734 8.85328C25.6668 9.38662 25.7334 9.93324 25.7334 10.5599Z" stroke="white" stroke-width="2" stroke-miterlimit="10" stroke-linecap="round" stroke-linejoin="round"/>
<path d="M29.7349 14.5601V21.4267C29.7349 25.5334 27.3883 27.2934 23.8683 27.2934H12.1482C11.1615 27.2934 10.2682 27.1601 9.49487 26.8667C7.90821 26.2801 6.82819 25.0667 6.44153 23.1201C6.97486 23.2401 7.5482 23.2934 8.1482 23.2934H19.8683C23.3883 23.2934 25.7349 21.5334 25.7349 17.4267V10.5601C25.7349 9.9334 25.6816 9.37345 25.5749 8.85345C28.1083 9.38679 29.7349 11.1734 29.7349 14.5601Z" stroke="white" stroke-width="2" stroke-miterlimit="10" stroke-linecap="round" stroke-linejoin="round"/>
<path d="M13.9978 17.5198C15.9418 17.5198 17.5178 15.9438 17.5178 13.9998C17.5178 12.0557 15.9418 10.4797 13.9978 10.4797C12.0538 10.4797 10.4778 12.0557 10.4778 13.9998C10.4778 15.9438 12.0538 17.5198 13.9978 17.5198Z" stroke="white" stroke-width="2" stroke-miterlimit="10" stroke-linecap="round" stroke-linejoin="round"/>
<path d="M6.37326 11.0667V16.9334" stroke="white" stroke-width="2" stroke-miterlimit="10" stroke-linecap="round" stroke-linejoin="round"/>
<path d="M21.629 11.067V16.9337" stroke="white" stroke-width="2" stroke-miterlimit="10" stroke-linecap="round" stroke-linejoin="round"/>
</svg>
