<svg width="24" height="24" viewBox="0 0 24 24" fill="none" xmlns="http://www.w3.org/2000/svg">
<g clip-path="url(#clip0_107_1839)">
<path d="M17.5728 2.1115C16.9482 2.72906 16.3759 3.3984 15.8673 4.11211L15.7065 4.06034C14.7789 3.7608 13.8177 3.5759 12.8491 3.51304C12.5573 3.49085 11.469 3.49085 11.1137 3.51304C10.0403 3.5833 9.21745 3.74231 8.28243 4.06404C8.24503 4.07883 8.21137 4.08992 8.17771 4.10102C7.65036 3.391 7.06317 2.72536 6.41614 2.1152C9.52039 0.543547 13.152 0.354949 16.4021 1.59378C16.7499 1.72321 17.0903 1.87483 17.4231 2.03754L17.5728 2.1115Z" fill="#F00500"/>
<path d="M23.3624 16.138C22.8911 17.4656 22.1842 18.6971 21.2679 19.7695C20.7705 20.3464 20.2207 20.8752 19.6298 21.3559C18.2459 22.4579 16.6302 23.2456 14.9061 23.6598C12.9986 24.1146 11.0089 24.1146 9.10148 23.6598C7.37357 23.2456 5.76161 22.4579 4.37778 21.3559C3.78685 20.8752 3.23706 20.3464 2.73963 19.7695C0.102888 16.689 -0.697486 12.4585 0.645197 8.64589C0.899522 7.93957 1.21743 7.25914 1.59891 6.61199C1.7747 6.31615 1.99162 5.98333 2.09634 5.8465C2.45539 7.37378 2.89672 8.71615 3.06128 9.20059C3.05006 9.22647 3.0351 9.25606 3.02014 9.28195C2.1487 11.0274 1.67746 12.71 1.56525 14.4998C1.56525 14.522 1.56151 14.5479 1.56151 14.5701C1.53159 15.1063 1.54655 15.3615 1.63631 15.698C1.91682 16.7519 2.78078 17.9131 4.13468 19.0521C6.35254 20.9159 9.35955 22.2619 11.6372 22.4172C14.0122 22.5763 17.5166 21.2043 19.8504 19.2C20.217 18.8783 20.561 18.538 20.8827 18.1756C21.1146 17.9094 21.4587 17.4508 21.4325 17.4508C21.425 17.4508 21.4325 17.4434 21.4474 17.436C21.4587 17.4286 21.4699 17.4175 21.4624 17.4101C21.4587 17.4065 21.4661 17.3954 21.4774 17.3917C21.4886 17.388 21.4961 17.3806 21.4923 17.3732C21.4886 17.3658 21.4923 17.3584 21.5073 17.3547C21.5185 17.351 21.5222 17.3399 21.5185 17.3325C21.5148 17.3251 21.5185 17.3177 21.526 17.3177C21.5335 17.3177 21.5409 17.3066 21.5409 17.2992C21.5409 17.2918 21.5484 17.2807 21.5559 17.2807C21.5634 17.2807 21.5709 17.2733 21.5709 17.2659C21.5821 17.2363 21.6008 17.2068 21.6195 17.1809C21.6756 17.0958 21.9 16.7001 21.9299 16.6336C22.1431 16.1565 22.2777 15.7313 22.3413 15.306C22.3712 15.1026 22.3899 14.7291 22.375 14.6403C22.3712 14.6256 22.3712 14.5997 22.3675 14.559C22.36 14.485 22.3563 14.3741 22.3488 14.2632C22.3413 14.0967 22.3264 13.8638 22.3151 13.7491C22.1543 12.0702 21.7205 10.6983 20.8976 9.24497C20.864 9.1895 20.8341 9.13402 20.8154 9.08965C20.8079 9.07855 20.8041 9.06746 20.8004 9.06007C20.9164 8.71615 21.3913 7.27763 21.7691 5.63202L21.7766 5.63942L21.8327 5.71338C21.9299 5.84281 22.188 6.2274 22.3039 6.4123C22.8313 7.26284 23.2427 8.17624 23.5344 9.13033C24.2113 11.4268 24.1552 13.8749 23.3624 16.138Z" fill="#F00500"/>
<path d="M18.5078 11.7189C18.4966 11.778 18.3208 11.9556 18.145 12.085C17.6289 12.4585 16.7051 12.8061 15.7663 12.9725C15.2315 13.0687 14.6966 13.0834 14.5358 13.0058C14.4311 12.954 14.4161 12.9133 14.4535 12.7802C14.5321 12.5029 14.7864 12.1996 15.1829 11.9149C15.3848 11.7707 16.2039 11.2788 16.5854 11.0717C17.2137 10.7315 17.7224 10.5281 18.0665 10.48C18.1749 10.4653 18.3058 10.4616 18.347 10.48C18.4143 10.5059 18.4891 10.7019 18.519 10.9386C18.534 11.0643 18.5265 11.619 18.5078 11.7189Z" fill="black"/>
<path d="M9.69617 12.9429C9.67373 12.9873 9.56153 13.0354 9.43437 13.0538C9.30721 13.0723 8.91824 13.0612 8.69758 13.0354C7.90468 12.9318 7.06316 12.6914 6.44979 12.3956C6.1057 12.2292 5.85885 12.0628 5.67559 11.8816L5.57087 11.7743L5.55965 11.6338C5.54095 11.3897 5.54469 11.0052 5.57461 10.8683C5.59331 10.7537 5.63445 10.6427 5.69055 10.5429C5.72047 10.5059 5.72047 10.5059 5.85511 10.5059C6.01968 10.5059 6.15806 10.5318 6.38247 10.6021C6.84249 10.7426 7.52693 11.0828 8.36097 11.5783C9.04914 11.9851 9.30721 12.1848 9.50543 12.4585C9.64007 12.6286 9.72983 12.8689 9.69617 12.9429Z" fill="black"/>
<path d="M14.9921 18.0905C14.9921 18.1016 14.9473 18.2791 14.8912 18.4899C14.8351 18.7007 14.7902 18.8708 14.7902 18.8782C14.749 18.8819 14.7116 18.8856 14.6705 18.8819H14.5508L14.3862 19.2665C14.2965 19.4773 14.2142 19.6733 14.203 19.7028L14.1805 19.7546L14.102 19.6289L14.0235 19.5032V18.4788L13.9935 18.4862C13.93 18.501 13.4774 18.5602 13.2792 18.5787C12.4601 18.66 11.6373 18.6415 10.8219 18.5269C10.691 18.5084 10.5788 18.4936 10.5751 18.4973C10.5714 18.501 10.5751 18.7377 10.5826 19.0298L10.5938 19.5549L10.5302 19.6511C10.4966 19.7029 10.4629 19.7472 10.4629 19.7509C10.4517 19.762 10.4143 19.7028 10.3283 19.5327C10.2348 19.3552 10.1674 19.1666 10.1188 18.9706L10.0926 18.8634L9.97669 18.8708L9.86075 18.8819L9.83082 18.7451C9.81586 18.6711 9.79716 18.5565 9.78968 18.4936L9.77847 18.3753L9.68122 18.2902C9.62512 18.2421 9.56902 18.1941 9.5578 18.1867C9.5391 18.1719 9.53162 18.146 9.53162 18.1238V18.0794L9.99913 18.0831L10.4666 18.0868L10.4816 18.1349L10.4966 18.183L10.6574 18.1904C10.7471 18.1941 11.0314 18.2015 11.2857 18.2089L11.7532 18.22L11.8729 18.0351L11.9963 17.8502H12.1534L12.1497 17.4656L12.1459 17.081L11.9402 16.9922C11.2782 16.7038 10.8893 16.3747 10.7434 15.9753C10.7135 15.8939 10.7135 15.8643 10.706 15.4945C10.7023 15.1284 10.7023 15.0951 10.7284 15.0138C10.7808 14.8289 10.9267 14.6847 11.1137 14.6366C11.1773 14.6181 11.3456 14.6181 12.2282 14.6181L13.268 14.6218L13.3839 14.6773C13.5223 14.7438 13.5859 14.7919 13.6644 14.8955C13.7542 15.0138 13.7804 15.1062 13.7804 15.3318C13.7804 15.6535 13.7579 15.9309 13.7243 16.0418C13.6756 16.1934 13.6008 16.3377 13.5073 16.4671C13.3203 16.7038 12.98 16.9404 12.6695 17.0477L12.5798 17.081L12.5835 17.4693L12.5873 17.8575L12.6695 17.8649L12.7518 17.8723L12.864 18.0388L12.9725 18.2052H13.4737C13.7504 18.2052 13.9935 18.2089 14.016 18.2126C14.0534 18.22 14.0609 18.2163 14.0983 18.1534L14.1431 18.0868H14.5733C14.8949 18.072 14.9921 18.0794 14.9921 18.0905Z" fill="black"/>
<path d="M13.0174 19.1519C12.9463 19.1925 12.8977 19.211 12.8865 19.2036C12.8753 19.1999 12.8229 19.1556 12.7668 19.1149L12.6658 19.0335L12.5611 19.1445C12.333 19.3885 12.3255 19.3996 12.2582 19.4033C12.1534 19.4144 12.131 19.3959 12.0038 19.2073C11.9365 19.1112 11.8842 19.0298 11.8842 19.0298C11.8842 19.0298 11.8355 19.0224 11.7794 19.0187L11.6747 19.0076L11.6261 19.1075L11.5775 19.2073L11.4915 19.1815C11.4241 19.1593 11.3568 19.1334 11.2932 19.1038L11.181 19.0483V18.8375L12.1759 18.8412L13.1707 18.8449L13.1745 18.9448C13.1782 19.0631 13.182 19.0594 13.0174 19.1519Z" fill="black"/>
<path d="M22.3676 14.6403C22.3639 14.6255 22.3639 14.5996 22.3601 14.5589C21.4625 14.4628 18.9006 14.4036 16.5219 16.3451C16.5219 16.3451 15.7552 12.869 12.1647 12.869C8.57424 12.869 7.24277 16.3451 7.24277 16.3451C5.23062 14.2039 2.53777 14.3592 1.56535 14.4998C1.56535 14.522 1.56161 14.5478 1.56161 14.57C1.53169 15.1062 1.54665 15.3614 1.63641 15.6979C1.91692 16.7519 2.78087 17.913 4.13478 19.052C6.35264 20.9158 9.35965 22.2619 11.6374 22.4172C14.0123 22.5762 17.5167 21.2042 19.8505 19.1999C20.2171 18.8782 20.5611 18.538 20.8828 18.1756C21.1147 17.9093 21.4588 17.4508 21.4326 17.4508C21.4251 17.4508 21.4326 17.4434 21.4475 17.436C21.4588 17.4286 21.47 17.4175 21.4625 17.4101C21.4588 17.4064 21.4662 17.3953 21.4775 17.3916C21.4887 17.3879 21.4962 17.3805 21.4924 17.3731C21.4887 17.3657 21.4924 17.3583 21.5074 17.3546C21.5186 17.3509 21.5223 17.3398 21.5186 17.3324C21.5149 17.325 21.5186 17.3176 21.5261 17.3176C21.5336 17.3176 21.541 17.3066 21.541 17.2992C21.541 17.2918 21.5485 17.2807 21.556 17.2807C21.5635 17.2807 21.571 17.2733 21.571 17.2659C21.5822 17.2363 21.6009 17.2067 21.6196 17.1808C21.6757 17.0958 21.9001 16.7001 21.93 16.6335C22.1432 16.1565 22.2778 15.7312 22.3414 15.3059C22.3639 15.1025 22.3826 14.7291 22.3676 14.6403ZM13.0174 19.1519C12.9464 19.1925 12.8978 19.211 12.8865 19.2036C12.8753 19.1999 12.8229 19.1556 12.7668 19.1149L12.6659 19.0335L12.5611 19.1445C12.333 19.3885 12.3255 19.3996 12.2582 19.4033C12.1535 19.4144 12.131 19.3959 12.0039 19.2073C11.9366 19.1112 11.8842 19.0298 11.8842 19.0298C11.8842 19.0298 11.8356 19.0224 11.7795 19.0187L11.6748 19.0076L11.6261 19.1075L11.5775 19.2073L11.4915 19.1814C11.4242 19.1592 11.3568 19.1334 11.2933 19.1038L11.1811 19.0483V18.8375L12.1759 18.8412L13.1708 18.8449L13.1745 18.9448C13.1783 19.0631 13.182 19.0594 13.0174 19.1519ZM14.8875 18.4862C14.8314 18.697 14.7865 18.8671 14.7865 18.8745C14.7453 18.8782 14.7079 18.8819 14.6668 18.8782H14.5471L14.3863 19.2665C14.2965 19.4773 14.2143 19.6733 14.203 19.7029L14.1806 19.7546L14.1021 19.6289L14.0235 19.5032V18.4788L13.9936 18.4862C13.93 18.501 13.4775 18.5602 13.2792 18.5787C12.4602 18.66 11.6373 18.6415 10.822 18.5269C10.6911 18.5084 10.5789 18.4936 10.5752 18.4973C10.5714 18.501 10.5752 18.7377 10.5827 19.0298L10.5939 19.5549L10.5303 19.6511C10.4966 19.7029 10.463 19.7472 10.463 19.7509C10.4517 19.762 10.4143 19.7029 10.3283 19.5327C10.2348 19.3552 10.1675 19.1666 10.1189 18.9707L10.0927 18.8634L9.97676 18.8708L9.86082 18.8819L9.8309 18.7451C9.81594 18.6711 9.79724 18.5565 9.78976 18.4936L9.77854 18.3753L9.68129 18.2902C9.62519 18.2421 9.5691 18.1941 9.55788 18.1867C9.53917 18.1719 9.53169 18.146 9.53169 18.1238V18.0794L9.9992 18.0831L10.4667 18.0868L10.4817 18.1349L10.4966 18.183L10.6575 18.1904C10.7472 18.1941 11.0315 18.2015 11.2858 18.2089L11.7533 18.22L11.873 18.0351L11.9964 17.8502H12.1535L12.1497 17.4656L12.146 17.081L11.9403 16.9922C11.2783 16.7038 10.8893 16.3747 10.7435 15.9753C10.7136 15.8939 10.7136 15.8643 10.7061 15.4945C10.7023 15.1284 10.7023 15.0952 10.7285 15.0138C10.7809 14.8289 10.9267 14.6847 11.1137 14.6366C11.1773 14.6181 11.3456 14.6181 12.2283 14.6181L13.268 14.6218L13.384 14.6773C13.5223 14.7438 13.5859 14.7919 13.6645 14.8955C13.7542 15.0138 13.7804 15.1062 13.7804 15.3318C13.7804 15.6535 13.758 15.9309 13.7243 16.0418C13.6757 16.1935 13.6009 16.3377 13.5074 16.4671C13.3204 16.7038 12.98 16.9405 12.6696 17.0477L12.5798 17.081L12.5836 17.4693L12.5873 17.8576L12.6696 17.8649L12.7519 17.8723L12.8641 18.0388L12.9726 18.2052H13.4737C13.7505 18.2052 13.9936 18.2089 14.016 18.2126C14.0534 18.22 14.0609 18.2163 14.0983 18.1534L14.1432 18.0868H14.5733C14.9062 18.0868 15.0034 18.0905 15.0034 18.1016C14.9922 18.0979 14.9436 18.2791 14.8875 18.4862Z" fill="white"/>
<path d="M22.3377 14.2631C22.3302 14.0967 22.3152 13.8637 22.304 13.7491C22.1432 12.0702 21.7093 10.6982 20.8865 9.2449C20.8529 9.18943 20.8229 9.13396 20.8042 9.08959C20.7968 9.07849 20.793 9.0674 20.7893 9.06C20.9052 8.71609 21.3802 7.27757 21.758 5.63196C22.2703 3.39837 22.5957 0.787592 21.6009 0.0036171C21.6009 0.0036171 19.8804 -0.122115 17.5766 2.11147C16.952 2.72904 16.3797 3.39838 15.8711 4.11209L15.7103 4.06032C14.7827 3.76078 13.8215 3.57588 12.8529 3.51301C12.5611 3.49082 11.4728 3.49082 11.1175 3.51301C10.0441 3.58327 9.22126 3.74229 8.28624 4.06401C8.24884 4.07881 8.21518 4.0899 8.18152 4.10099C7.65417 3.39098 7.06698 2.72534 6.41995 2.11517C4.02256 -0.12951 2.23855 -8.11213e-05 2.23855 -8.11213e-05C1.18386 0.809779 1.5429 3.5389 2.08895 5.84645C2.448 7.37372 2.88932 8.71609 3.05389 9.20053C3.04267 9.22641 3.02771 9.256 3.01275 9.28188C2.14131 11.0273 1.67006 12.7099 1.55786 14.4998C2.53402 14.3592 5.22313 14.2002 7.23902 16.3451C7.23902 16.3451 8.57048 12.8689 12.1609 12.8689C15.7514 12.8689 16.5181 16.3451 16.5181 16.3451C18.8968 14.4036 21.4587 14.4665 22.3564 14.5589C22.3526 14.485 22.3451 14.374 22.3377 14.2631ZM3.76076 7.80638C3.76076 7.80638 2.36197 4.34876 2.72102 2.37403C2.78086 2.04121 2.89307 1.74907 3.06885 1.52719C3.06885 1.52719 4.65463 1.68251 7.21284 4.49298C7.21284 4.49298 6.72663 4.72596 6.07586 5.22149C6.07586 5.22149 6.07212 5.22518 6.06838 5.22518C5.36151 5.76139 4.45641 6.61193 3.76076 7.80638ZM9.69624 12.9429C9.6738 12.9873 9.5616 13.0353 9.43444 13.0538C9.30728 13.0723 8.91831 13.0612 8.69765 13.0353C7.90475 12.9318 7.06324 12.6914 6.44987 12.3956C6.10578 12.2292 5.85894 12.0628 5.67567 11.8816L5.57095 11.7743L5.55973 11.6338C5.54103 11.3897 5.54477 11.0051 5.57469 10.8683C5.59339 10.7537 5.63453 10.6427 5.69063 10.5429C5.72055 10.5059 5.72055 10.5059 5.8552 10.5059C6.01976 10.5059 6.15814 10.5318 6.38255 10.6021C6.84257 10.7426 7.52701 11.0828 8.36104 11.5783C9.04921 11.9851 9.30728 12.1848 9.5055 12.4585C9.64014 12.6286 9.7299 12.8689 9.69624 12.9429ZM18.5078 11.7189C18.4966 11.778 18.3208 11.9555 18.1451 12.085C17.6289 12.4585 16.7051 12.8061 15.7664 12.9725C15.2315 13.0686 14.6967 13.0834 14.5359 13.0058C14.4312 12.954 14.4162 12.9133 14.4536 12.7802C14.5321 12.5028 14.7865 12.1996 15.1829 11.9149C15.3849 11.7706 16.204 11.2788 16.5854 11.0717C17.2138 10.7315 17.7224 10.5281 18.0665 10.48C18.175 10.4652 18.3059 10.4615 18.347 10.48C18.4143 10.5059 18.4891 10.7019 18.5191 10.9386C18.534 11.0643 18.5265 11.619 18.5078 11.7189ZM17.887 5.22149L17.8795 5.21779C17.2512 4.72226 16.7799 4.48928 16.7799 4.48928C19.2521 1.67881 20.7818 1.52349 20.7818 1.52349C20.9501 1.74907 21.0586 2.03751 21.1184 2.37033C21.4662 4.34506 20.1161 7.80638 20.1161 7.80638C19.5513 6.81162 18.7921 5.9315 17.887 5.22149Z" fill="#FFA409"/>
<path d="M21.1221 2.37034C20.8304 2.33336 19.4503 2.32596 17.887 5.2215L17.8795 5.2178C17.2512 4.72227 16.7799 4.48929 16.7799 4.48929C19.2521 1.67881 20.7817 1.5235 20.7817 1.5235C20.9538 1.74908 21.0623 2.03752 21.1221 2.37034Z" fill="#FF9300"/>
<path d="M20.1198 7.80638C19.5513 6.80792 18.7958 5.93149 17.887 5.22148C19.4503 2.32595 20.8266 2.33334 21.1221 2.37032C21.4699 4.34875 20.1198 7.80638 20.1198 7.80638Z" fill="#FF8300"/>
<path d="M21.1782 2.38145C21.1595 2.37776 21.1408 2.37406 21.1221 2.37036L21.1782 2.38145Z" fill="#FF8300"/>
<path d="M7.21284 4.48929C7.21284 4.48929 6.72664 4.72227 6.07587 5.2178C6.07587 5.2178 6.07212 5.2215 6.06838 5.2215C4.44893 2.32227 3.02397 2.33336 2.71729 2.37034C2.77713 2.03752 2.88933 1.74538 3.06511 1.5235C3.06885 1.5235 4.65464 1.67881 7.21284 4.48929Z" fill="#FF9300"/>
<path d="M6.07203 5.22148C5.36141 5.76139 4.45632 6.60823 3.76067 7.80638C3.76067 7.80638 2.36188 4.34875 2.72092 2.37032C3.02387 2.33334 4.45258 2.32595 6.07203 5.22148Z" fill="#FF8300"/>
<path d="M2.72097 2.37036C2.70227 2.37406 2.67983 2.37776 2.66113 2.38145L2.72097 2.37036Z" fill="#FF8300"/>
<path d="M16.3348 9.72566C16.3348 9.72566 15.138 9.79962 15.2876 8.87512C15.4372 7.95062 16.3722 7.83968 16.634 7.87666C16.8958 7.91364 17.943 8.28344 17.756 9.06002C17.569 9.8366 17.3072 9.68868 17.1576 9.72566C17.008 9.76264 16.3348 9.72566 16.3348 9.72566Z" fill="white"/>
<path d="M7.50828 9.72566C7.50828 9.72566 6.31146 9.79962 6.46106 8.87512C6.61066 7.95062 7.54568 7.83968 7.80748 7.87666C8.06928 7.91364 9.1165 8.28344 8.9295 9.06002C8.74249 9.8366 8.48069 9.68868 8.33109 9.72566C8.18149 9.76264 7.50828 9.72566 7.50828 9.72566Z" fill="white"/>
</g>
<defs>
<clipPath id="clip0_107_1839">
<rect width="24" height="24" fill="white"/>
</clipPath>
</defs>
</svg>
