<svg width="224" height="58" viewBox="0 0 224 58" fill="none" xmlns="http://www.w3.org/2000/svg">
<rect width="32" height="32" rx="16" fill="#F00500"/>
<g clip-path="url(#clip0_0_1847)">
<path d="M21.5728 6.1115C20.9482 6.72906 20.3759 7.3984 19.8673 8.11211L19.7065 8.06034C18.7789 7.7608 17.8177 7.5759 16.8491 7.51304C16.5573 7.49085 15.469 7.49085 15.1137 7.51304C14.0403 7.5833 13.2174 7.74231 12.2824 8.06404C12.245 8.07883 12.2114 8.08992 12.1777 8.10102C11.6504 7.391 11.0632 6.72536 10.4161 6.1152C13.5204 4.54355 17.152 4.35495 20.4021 5.59378C20.7499 5.72321 21.0903 5.87483 21.4231 6.03754L21.5728 6.1115Z" fill="#F00500"/>
<path d="M27.3624 20.138C26.8911 21.4656 26.1842 22.6971 25.2679 23.7695C24.7705 24.3464 24.2207 24.8752 23.6298 25.3559C22.2459 26.4579 20.6302 27.2456 18.9061 27.6598C16.9986 28.1146 15.0089 28.1146 13.1015 27.6598C11.3736 27.2456 9.76161 26.4579 8.37778 25.3559C7.78685 24.8752 7.23706 24.3464 6.73963 23.7695C4.10289 20.689 3.30251 16.4585 4.6452 12.6459C4.89952 11.9396 5.21743 11.2591 5.59891 10.612C5.7747 10.3161 5.99162 9.98333 6.09634 9.8465C6.45539 11.3738 6.89672 12.7162 7.06128 13.2006C7.05006 13.2265 7.0351 13.2561 7.02014 13.2819C6.1487 15.0274 5.67746 16.71 5.56525 18.4998C5.56525 18.522 5.56151 18.5479 5.56151 18.5701C5.53159 19.1063 5.54655 19.3615 5.63631 19.698C5.91682 20.7519 6.78078 21.9131 8.13468 23.0521C10.3525 24.9159 13.3595 26.2619 15.6372 26.4172C18.0122 26.5763 21.5166 25.2043 23.8504 23.2C24.217 22.8783 24.561 22.538 24.8827 22.1756C25.1146 21.9094 25.4587 21.4508 25.4325 21.4508C25.425 21.4508 25.4325 21.4434 25.4474 21.436C25.4587 21.4286 25.4699 21.4175 25.4624 21.4101C25.4587 21.4065 25.4661 21.3954 25.4774 21.3917C25.4886 21.388 25.4961 21.3806 25.4923 21.3732C25.4886 21.3658 25.4923 21.3584 25.5073 21.3547C25.5185 21.351 25.5222 21.3399 25.5185 21.3325C25.5148 21.3251 25.5185 21.3177 25.526 21.3177C25.5335 21.3177 25.5409 21.3066 25.5409 21.2992C25.5409 21.2918 25.5484 21.2807 25.5559 21.2807C25.5634 21.2807 25.5709 21.2733 25.5709 21.2659C25.5821 21.2363 25.6008 21.2068 25.6195 21.1809C25.6756 21.0958 25.9 20.7001 25.9299 20.6336C26.1431 20.1565 26.2777 19.7313 26.3413 19.306C26.3712 19.1026 26.3899 18.7291 26.375 18.6403C26.3712 18.6256 26.3712 18.5997 26.3675 18.559C26.36 18.485 26.3563 18.3741 26.3488 18.2632C26.3413 18.0967 26.3264 17.8638 26.3151 17.7491C26.1543 16.0702 25.7205 14.6983 24.8976 13.245C24.864 13.1895 24.8341 13.134 24.8154 13.0896C24.8079 13.0786 24.8041 13.0675 24.8004 13.0601C24.9164 12.7162 25.3913 11.2776 25.7691 9.63202L25.7766 9.63942L25.8327 9.71338C25.9299 9.84281 26.188 10.2274 26.3039 10.4123C26.8313 11.2628 27.2427 12.1762 27.5344 13.1303C28.2113 15.4268 28.1552 17.8749 27.3624 20.138Z" fill="#F00500"/>
<path d="M22.5078 15.7189C22.4966 15.778 22.3208 15.9556 22.145 16.085C21.6289 16.4585 20.7051 16.8061 19.7663 16.9725C19.2315 17.0687 18.6966 17.0834 18.5358 17.0058C18.4311 16.954 18.4161 16.9133 18.4535 16.7802C18.5321 16.5029 18.7864 16.1996 19.1829 15.9149C19.3848 15.7707 20.2039 15.2788 20.5854 15.0717C21.2137 14.7315 21.7224 14.5281 22.0665 14.48C22.1749 14.4653 22.3058 14.4616 22.347 14.48C22.4143 14.5059 22.4891 14.7019 22.519 14.9386C22.534 15.0643 22.5265 15.619 22.5078 15.7189Z" fill="black"/>
<path d="M13.6962 16.9429C13.6737 16.9873 13.5615 17.0354 13.4344 17.0538C13.3072 17.0723 12.9182 17.0612 12.6976 17.0354C11.9047 16.9318 11.0632 16.6914 10.4498 16.3956C10.1057 16.2292 9.85885 16.0628 9.67559 15.8816L9.57087 15.7743L9.55965 15.6338C9.54095 15.3897 9.54469 15.0052 9.57461 14.8683C9.59331 14.7537 9.63445 14.6427 9.69055 14.5429C9.72047 14.5059 9.72047 14.5059 9.85511 14.5059C10.0197 14.5059 10.1581 14.5318 10.3825 14.6021C10.8425 14.7426 11.5269 15.0828 12.361 15.5783C13.0491 15.9851 13.3072 16.1848 13.5054 16.4585C13.6401 16.6286 13.7298 16.8689 13.6962 16.9429Z" fill="black"/>
<path d="M18.9921 22.0905C18.9921 22.1016 18.9473 22.2791 18.8912 22.4899C18.8351 22.7007 18.7902 22.8708 18.7902 22.8782C18.749 22.8819 18.7116 22.8856 18.6705 22.8819H18.5508L18.3862 23.2665C18.2965 23.4773 18.2142 23.6733 18.203 23.7028L18.1805 23.7546L18.102 23.6289L18.0235 23.5032V22.4788L17.9935 22.4862C17.93 22.501 17.4774 22.5602 17.2792 22.5787C16.4601 22.66 15.6373 22.6415 14.8219 22.5269C14.691 22.5084 14.5788 22.4936 14.5751 22.4973C14.5714 22.501 14.5751 22.7377 14.5826 23.0298L14.5938 23.5549L14.5302 23.6511C14.4966 23.7029 14.4629 23.7472 14.4629 23.7509C14.4517 23.762 14.4143 23.7028 14.3283 23.5327C14.2348 23.3552 14.1674 23.1666 14.1188 22.9706L14.0926 22.8634L13.9767 22.8708L13.8607 22.8819L13.8308 22.7451C13.8159 22.6711 13.7972 22.5565 13.7897 22.4936L13.7785 22.3753L13.6812 22.2902C13.6251 22.2421 13.569 22.1941 13.5578 22.1867C13.5391 22.1719 13.5316 22.146 13.5316 22.1238V22.0794L13.9991 22.0831L14.4666 22.0868L14.4816 22.1349L14.4966 22.183L14.6574 22.1904C14.7471 22.1941 15.0314 22.2015 15.2857 22.2089L15.7532 22.22L15.8729 22.0351L15.9963 21.8502H16.1534L16.1497 21.4656L16.1459 21.081L15.9402 20.9922C15.2782 20.7038 14.8893 20.3747 14.7434 19.9753C14.7135 19.8939 14.7135 19.8643 14.706 19.4945C14.7023 19.1284 14.7023 19.0951 14.7284 19.0138C14.7808 18.8289 14.9267 18.6847 15.1137 18.6366C15.1773 18.6181 15.3456 18.6181 16.2282 18.6181L17.268 18.6218L17.3839 18.6773C17.5223 18.7438 17.5859 18.7919 17.6644 18.8955C17.7542 19.0138 17.7804 19.1062 17.7804 19.3318C17.7804 19.6535 17.7579 19.9309 17.7243 20.0418C17.6756 20.1934 17.6008 20.3377 17.5073 20.4671C17.3203 20.7038 16.98 20.9404 16.6695 21.0477L16.5798 21.081L16.5835 21.4693L16.5873 21.8575L16.6695 21.8649L16.7518 21.8723L16.864 22.0388L16.9725 22.2052H17.4737C17.7504 22.2052 17.9935 22.2089 18.016 22.2126C18.0534 22.22 18.0609 22.2163 18.0983 22.1534L18.1431 22.0868H18.5733C18.8949 22.072 18.9921 22.0794 18.9921 22.0905Z" fill="black"/>
<path d="M17.0174 23.1519C16.9463 23.1925 16.8977 23.211 16.8865 23.2036C16.8753 23.1999 16.8229 23.1556 16.7668 23.1149L16.6658 23.0335L16.5611 23.1445C16.333 23.3885 16.3255 23.3996 16.2582 23.4033C16.1534 23.4144 16.131 23.3959 16.0038 23.2073C15.9365 23.1112 15.8842 23.0298 15.8842 23.0298C15.8842 23.0298 15.8355 23.0224 15.7794 23.0187L15.6747 23.0076L15.6261 23.1075L15.5775 23.2073L15.4915 23.1815C15.4241 23.1593 15.3568 23.1334 15.2932 23.1038L15.181 23.0483V22.8375L16.1759 22.8412L17.1707 22.8449L17.1745 22.9448C17.1782 23.0631 17.182 23.0594 17.0174 23.1519Z" fill="black"/>
<path d="M26.3676 18.6403C26.3639 18.6255 26.3639 18.5996 26.3601 18.5589C25.4625 18.4628 22.9006 18.4036 20.5219 20.3451C20.5219 20.3451 19.7552 16.869 16.1647 16.869C12.5742 16.869 11.2428 20.3451 11.2428 20.3451C9.23062 18.2039 6.53777 18.3592 5.56535 18.4998C5.56535 18.522 5.56161 18.5478 5.56161 18.57C5.53169 19.1062 5.54665 19.3614 5.63641 19.6979C5.91692 20.7519 6.78087 21.913 8.13478 23.052C10.3526 24.9158 13.3597 26.2619 15.6374 26.4172C18.0123 26.5762 21.5167 25.2042 23.8505 23.1999C24.2171 22.8782 24.5611 22.538 24.8828 22.1756C25.1147 21.9093 25.4588 21.4508 25.4326 21.4508C25.4251 21.4508 25.4326 21.4434 25.4475 21.436C25.4588 21.4286 25.47 21.4175 25.4625 21.4101C25.4588 21.4064 25.4662 21.3953 25.4775 21.3916C25.4887 21.3879 25.4962 21.3805 25.4924 21.3731C25.4887 21.3657 25.4924 21.3583 25.5074 21.3546C25.5186 21.3509 25.5223 21.3398 25.5186 21.3324C25.5149 21.325 25.5186 21.3176 25.5261 21.3176C25.5336 21.3176 25.541 21.3066 25.541 21.2992C25.541 21.2918 25.5485 21.2807 25.556 21.2807C25.5635 21.2807 25.571 21.2733 25.571 21.2659C25.5822 21.2363 25.6009 21.2067 25.6196 21.1808C25.6757 21.0958 25.9001 20.7001 25.93 20.6335C26.1432 20.1565 26.2778 19.7312 26.3414 19.3059C26.3639 19.1025 26.3826 18.7291 26.3676 18.6403ZM17.0174 23.1519C16.9464 23.1925 16.8978 23.211 16.8865 23.2036C16.8753 23.1999 16.8229 23.1556 16.7668 23.1149L16.6659 23.0335L16.5611 23.1445C16.333 23.3885 16.3255 23.3996 16.2582 23.4033C16.1535 23.4144 16.131 23.3959 16.0039 23.2073C15.9366 23.1112 15.8842 23.0298 15.8842 23.0298C15.8842 23.0298 15.8356 23.0224 15.7795 23.0187L15.6748 23.0076L15.6261 23.1075L15.5775 23.2073L15.4915 23.1814C15.4242 23.1592 15.3568 23.1334 15.2933 23.1038L15.1811 23.0483V22.8375L16.1759 22.8412L17.1708 22.8449L17.1745 22.9448C17.1783 23.0631 17.182 23.0594 17.0174 23.1519ZM18.8875 22.4862C18.8314 22.697 18.7865 22.8671 18.7865 22.8745C18.7453 22.8782 18.7079 22.8819 18.6668 22.8782H18.5471L18.3863 23.2665C18.2965 23.4773 18.2143 23.6733 18.203 23.7029L18.1806 23.7546L18.1021 23.6289L18.0235 23.5032V22.4788L17.9936 22.4862C17.93 22.501 17.4775 22.5602 17.2792 22.5787C16.4602 22.66 15.6373 22.6415 14.822 22.5269C14.6911 22.5084 14.5789 22.4936 14.5752 22.4973C14.5714 22.501 14.5752 22.7377 14.5827 23.0298L14.5939 23.5549L14.5303 23.6511C14.4966 23.7029 14.463 23.7472 14.463 23.7509C14.4517 23.762 14.4143 23.7029 14.3283 23.5327C14.2348 23.3552 14.1675 23.1666 14.1189 22.9707L14.0927 22.8634L13.9768 22.8708L13.8608 22.8819L13.8309 22.7451C13.8159 22.6711 13.7972 22.5565 13.7898 22.4936L13.7785 22.3753L13.6813 22.2902C13.6252 22.2421 13.5691 22.1941 13.5579 22.1867C13.5392 22.1719 13.5317 22.146 13.5317 22.1238V22.0794L13.9992 22.0831L14.4667 22.0868L14.4817 22.1349L14.4966 22.183L14.6575 22.1904C14.7472 22.1941 15.0315 22.2015 15.2858 22.2089L15.7533 22.22L15.873 22.0351L15.9964 21.8502H16.1535L16.1497 21.4656L16.146 21.081L15.9403 20.9922C15.2783 20.7038 14.8893 20.3747 14.7435 19.9753C14.7136 19.8939 14.7136 19.8643 14.7061 19.4945C14.7023 19.1284 14.7023 19.0952 14.7285 19.0138C14.7809 18.8289 14.9267 18.6847 15.1137 18.6366C15.1773 18.6181 15.3456 18.6181 16.2283 18.6181L17.268 18.6218L17.384 18.6773C17.5223 18.7438 17.5859 18.7919 17.6645 18.8955C17.7542 19.0138 17.7804 19.1062 17.7804 19.3318C17.7804 19.6535 17.758 19.9309 17.7243 20.0418C17.6757 20.1935 17.6009 20.3377 17.5074 20.4671C17.3204 20.7038 16.98 20.9405 16.6696 21.0477L16.5798 21.081L16.5836 21.4693L16.5873 21.8576L16.6696 21.8649L16.7519 21.8723L16.8641 22.0388L16.9726 22.2052H17.4737C17.7505 22.2052 17.9936 22.2089 18.016 22.2126C18.0534 22.22 18.0609 22.2163 18.0983 22.1534L18.1432 22.0868H18.5733C18.9062 22.0868 19.0034 22.0905 19.0034 22.1016C18.9922 22.0979 18.9436 22.2791 18.8875 22.4862Z" fill="white"/>
<path d="M26.3377 18.2631C26.3302 18.0967 26.3152 17.8637 26.304 17.7491C26.1432 16.0702 25.7093 14.6982 24.8865 13.2449C24.8529 13.1894 24.8229 13.134 24.8042 13.0896C24.7968 13.0785 24.793 13.0674 24.7893 13.06C24.9052 12.7161 25.3802 11.2776 25.758 9.63196C26.2703 7.39837 26.5957 4.78759 25.6009 4.00362C25.6009 4.00362 23.8804 3.87789 21.5766 6.11147C20.952 6.72904 20.3797 7.39838 19.8711 8.11209L19.7103 8.06032C18.7827 7.76078 17.8215 7.57588 16.8529 7.51301C16.5611 7.49082 15.4728 7.49082 15.1175 7.51301C14.0441 7.58327 13.2213 7.74229 12.2862 8.06401C12.2488 8.07881 12.2152 8.0899 12.1815 8.10099C11.6542 7.39098 11.067 6.72534 10.4199 6.11517C8.02256 3.87049 6.23855 3.99992 6.23855 3.99992C5.18386 4.80978 5.5429 7.5389 6.08895 9.84645C6.448 11.3737 6.88932 12.7161 7.05389 13.2005C7.04267 13.2264 7.02771 13.256 7.01275 13.2819C6.14131 15.0273 5.67006 16.7099 5.55786 18.4998C6.53402 18.3592 9.22313 18.2002 11.239 20.3451C11.239 20.3451 12.5705 16.8689 16.1609 16.8689C19.7514 16.8689 20.5181 20.3451 20.5181 20.3451C22.8968 18.4036 25.4587 18.4665 26.3564 18.5589C26.3526 18.485 26.3451 18.374 26.3377 18.2631ZM7.76076 11.8064C7.76076 11.8064 6.36197 8.34876 6.72102 6.37403C6.78086 6.04121 6.89307 5.74907 7.06885 5.52719C7.06885 5.52719 8.65463 5.68251 11.2128 8.49298C11.2128 8.49298 10.7266 8.72596 10.0759 9.22149C10.0759 9.22149 10.0721 9.22518 10.0684 9.22518C9.36151 9.76139 8.45641 10.6119 7.76076 11.8064ZM13.6962 16.9429C13.6738 16.9873 13.5616 17.0353 13.4344 17.0538C13.3073 17.0723 12.9183 17.0612 12.6976 17.0353C11.9048 16.9318 11.0632 16.6914 10.4499 16.3956C10.1058 16.2292 9.85894 16.0628 9.67567 15.8816L9.57095 15.7743L9.55973 15.6338C9.54103 15.3897 9.54477 15.0051 9.57469 14.8683C9.59339 14.7537 9.63453 14.6427 9.69063 14.5429C9.72055 14.5059 9.72055 14.5059 9.8552 14.5059C10.0198 14.5059 10.1581 14.5318 10.3825 14.6021C10.8426 14.7426 11.527 15.0828 12.361 15.5783C13.0492 15.9851 13.3073 16.1848 13.5055 16.4585C13.6401 16.6286 13.7299 16.8689 13.6962 16.9429ZM22.5078 15.7189C22.4966 15.778 22.3208 15.9555 22.1451 16.085C21.6289 16.4585 20.7051 16.8061 19.7664 16.9725C19.2315 17.0686 18.6967 17.0834 18.5359 17.0058C18.4312 16.954 18.4162 16.9133 18.4536 16.7802C18.5321 16.5028 18.7865 16.1996 19.1829 15.9149C19.3849 15.7706 20.204 15.2788 20.5854 15.0717C21.2138 14.7315 21.7224 14.5281 22.0665 14.48C22.175 14.4652 22.3059 14.4615 22.347 14.48C22.4143 14.5059 22.4891 14.7019 22.5191 14.9386C22.534 15.0643 22.5265 15.619 22.5078 15.7189ZM21.887 9.22149L21.8795 9.21779C21.2512 8.72226 20.7799 8.48928 20.7799 8.48928C23.2521 5.67881 24.7818 5.52349 24.7818 5.52349C24.9501 5.74907 25.0586 6.03751 25.1184 6.37033C25.4662 8.34506 24.1161 11.8064 24.1161 11.8064C23.5513 10.8116 22.7921 9.9315 21.887 9.22149Z" fill="#FFA409"/>
<path d="M25.1221 6.37034C24.8304 6.33336 23.4503 6.32596 21.887 9.2215L21.8795 9.2178C21.2512 8.72227 20.7799 8.48929 20.7799 8.48929C23.2521 5.67881 24.7817 5.5235 24.7817 5.5235C24.9538 5.74908 25.0623 6.03752 25.1221 6.37034Z" fill="#FF9300"/>
<path d="M24.1198 11.8064C23.5513 10.8079 22.7958 9.93149 21.887 9.22148C23.4503 6.32595 24.8266 6.33334 25.1221 6.37032C25.4699 8.34875 24.1198 11.8064 24.1198 11.8064Z" fill="#FF8300"/>
<path d="M25.1782 6.38145C25.1595 6.37776 25.1408 6.37406 25.1221 6.37036L25.1782 6.38145Z" fill="#FF8300"/>
<path d="M11.2128 8.48929C11.2128 8.48929 10.7266 8.72227 10.0759 9.2178C10.0759 9.2178 10.0721 9.2215 10.0684 9.2215C8.44893 6.32227 7.02397 6.33336 6.71729 6.37034C6.77713 6.03752 6.88933 5.74538 7.06511 5.5235C7.06885 5.5235 8.65464 5.67881 11.2128 8.48929Z" fill="#FF9300"/>
<path d="M10.072 9.22148C9.36141 9.76139 8.45632 10.6082 7.76067 11.8064C7.76067 11.8064 6.36188 8.34875 6.72092 6.37032C7.02387 6.33334 8.45258 6.32595 10.072 9.22148Z" fill="#FF8300"/>
<path d="M6.72097 6.37036C6.70227 6.37406 6.67983 6.37776 6.66113 6.38145L6.72097 6.37036Z" fill="#FF8300"/>
<path d="M20.3348 13.7257C20.3348 13.7257 19.138 13.7996 19.2876 12.8751C19.4372 11.9506 20.3722 11.8397 20.634 11.8767C20.8958 11.9136 21.943 12.2834 21.756 13.06C21.569 13.8366 21.3072 13.6887 21.1576 13.7257C21.008 13.7626 20.3348 13.7257 20.3348 13.7257Z" fill="white"/>
<path d="M11.5083 13.7257C11.5083 13.7257 10.3115 13.7996 10.4611 12.8751C10.6107 11.9506 11.5457 11.8397 11.8075 11.8767C12.0693 11.9136 13.1165 12.2834 12.9295 13.06C12.7425 13.8366 12.4807 13.6887 12.3311 13.7257C12.1815 13.7626 11.5083 13.7257 11.5083 13.7257Z" fill="white"/>
</g>
<path d="M51.4716 13.5625C51.4186 13.0663 51.1951 12.6799 50.8011 12.4034C50.411 12.1269 49.9034 11.9886 49.2784 11.9886C48.839 11.9886 48.4621 12.0549 48.1477 12.1875C47.8333 12.3201 47.5928 12.5 47.4261 12.7273C47.2595 12.9545 47.1742 13.214 47.1705 13.5057C47.1705 13.7481 47.2254 13.9583 47.3352 14.1364C47.4489 14.3144 47.6023 14.4659 47.7955 14.5909C47.9886 14.7121 48.2027 14.8144 48.4375 14.8977C48.6723 14.9811 48.9091 15.0511 49.1477 15.108L50.2386 15.3807C50.678 15.483 51.1004 15.6212 51.5057 15.7955C51.9148 15.9697 52.2803 16.1894 52.6023 16.4545C52.928 16.7197 53.1856 17.0398 53.375 17.4148C53.5644 17.7898 53.6591 18.2292 53.6591 18.733C53.6591 19.4148 53.4848 20.0152 53.1364 20.5341C52.7879 21.0492 52.2841 21.4527 51.625 21.7443C50.9697 22.0322 50.1761 22.1761 49.2443 22.1761C48.339 22.1761 47.553 22.036 46.8864 21.7557C46.2235 21.4754 45.7045 21.0663 45.3295 20.5284C44.9583 19.9905 44.7576 19.3352 44.7273 18.5625H46.8011C46.8314 18.9678 46.9564 19.3049 47.1761 19.5739C47.3958 19.8428 47.6818 20.0436 48.0341 20.1761C48.3902 20.3087 48.7879 20.375 49.2273 20.375C49.6856 20.375 50.0871 20.3068 50.4318 20.1705C50.7803 20.0303 51.053 19.8371 51.25 19.5909C51.447 19.3409 51.5473 19.0492 51.5511 18.7159C51.5473 18.4129 51.4583 18.1629 51.2841 17.9659C51.1098 17.7652 50.8655 17.5985 50.5511 17.4659C50.2405 17.3295 49.8769 17.2083 49.4602 17.1023L48.1364 16.7614C47.178 16.5152 46.4205 16.142 45.8636 15.642C45.3106 15.1383 45.0341 14.4697 45.0341 13.6364C45.0341 12.9508 45.2197 12.3504 45.5909 11.8352C45.9659 11.3201 46.4754 10.9205 47.1193 10.6364C47.7633 10.3485 48.4924 10.2045 49.3068 10.2045C50.1326 10.2045 50.8561 10.3485 51.4773 10.6364C52.1023 10.9205 52.5928 11.3163 52.9489 11.8239C53.3049 12.3277 53.4886 12.9072 53.5 13.5625H51.4716ZM57.5043 16.8864V22H55.4474V10.3636H57.4588V14.7557H57.5611C57.7656 14.2633 58.0819 13.875 58.5099 13.5909C58.9418 13.303 59.491 13.1591 60.1577 13.1591C60.7637 13.1591 61.2921 13.286 61.7429 13.5398C62.1937 13.7936 62.5421 14.1648 62.7884 14.6534C63.0384 15.142 63.1634 15.7386 63.1634 16.4432V22H61.1065V16.7614C61.1065 16.1742 60.955 15.7178 60.652 15.392C60.3527 15.0625 59.9323 14.8977 59.3906 14.8977C59.027 14.8977 58.7012 14.9773 58.4134 15.1364C58.1293 15.2917 57.9058 15.517 57.7429 15.8125C57.5838 16.108 57.5043 16.4659 57.5043 16.8864ZM65.2599 22V13.2727H67.3168V22H65.2599ZM66.294 12.0341C65.9683 12.0341 65.688 11.9261 65.4531 11.7102C65.2183 11.4905 65.1009 11.2273 65.1009 10.9205C65.1009 10.6098 65.2183 10.3466 65.4531 10.1307C65.688 9.91098 65.9683 9.80114 66.294 9.80114C66.6236 9.80114 66.9039 9.91098 67.1349 10.1307C67.3698 10.3466 67.4872 10.6098 67.4872 10.9205C67.4872 11.2273 67.3698 11.4905 67.1349 11.7102C66.9039 11.9261 66.6236 12.0341 66.294 12.0341ZM69.5227 22V10.3636H71.5795V14.7159H71.6648C71.7708 14.5038 71.9205 14.2784 72.1136 14.0398C72.3068 13.7973 72.5682 13.5909 72.8977 13.4205C73.2273 13.2462 73.6477 13.1591 74.1591 13.1591C74.8333 13.1591 75.4413 13.3314 75.983 13.6761C76.5284 14.017 76.9602 14.5227 77.2784 15.1932C77.6004 15.8598 77.7614 16.678 77.7614 17.6477C77.7614 18.6061 77.6042 19.4205 77.2898 20.0909C76.9754 20.7614 76.5473 21.2727 76.0057 21.625C75.464 21.9773 74.8504 22.1534 74.1648 22.1534C73.6648 22.1534 73.25 22.0701 72.9205 21.9034C72.5909 21.7367 72.3258 21.536 72.125 21.3011C71.928 21.0625 71.7746 20.8371 71.6648 20.625H71.5455V22H69.5227ZM71.5398 17.6364C71.5398 18.2008 71.6193 18.6951 71.7784 19.1193C71.9413 19.5436 72.1742 19.875 72.4773 20.1136C72.7841 20.3485 73.1553 20.4659 73.5909 20.4659C74.0455 20.4659 74.4261 20.3447 74.733 20.1023C75.0398 19.8561 75.2708 19.5208 75.4261 19.0966C75.5852 18.6686 75.6648 18.1818 75.6648 17.6364C75.6648 17.0947 75.5871 16.6136 75.4318 16.1932C75.2765 15.7727 75.0455 15.4432 74.7386 15.2045C74.4318 14.9659 74.0492 14.8466 73.5909 14.8466C73.1515 14.8466 72.7784 14.9621 72.4716 15.1932C72.1648 15.4242 71.9318 15.7481 71.7727 16.1648C71.6174 16.5814 71.5398 17.072 71.5398 17.6364ZM82.0213 22.1761C81.4683 22.1761 80.9702 22.0777 80.527 21.8807C80.0876 21.6799 79.7391 21.3845 79.4815 20.9943C79.2277 20.6042 79.1009 20.1231 79.1009 19.5511C79.1009 19.0587 79.1918 18.6515 79.3736 18.3295C79.5554 18.0076 79.8035 17.75 80.1179 17.5568C80.4323 17.3636 80.7865 17.2178 81.1804 17.1193C81.5781 17.017 81.9891 16.9432 82.4134 16.8977C82.9247 16.8447 83.3395 16.7973 83.6577 16.7557C83.9759 16.7102 84.2069 16.642 84.3509 16.5511C84.4986 16.4564 84.5724 16.3106 84.5724 16.1136V16.0795C84.5724 15.6515 84.4455 15.3201 84.1918 15.0852C83.938 14.8504 83.5724 14.733 83.0952 14.733C82.5914 14.733 82.1918 14.8428 81.8963 15.0625C81.6046 15.2822 81.4077 15.5417 81.3054 15.8409L79.3849 15.5682C79.5365 15.0379 79.7865 14.5947 80.1349 14.2386C80.4834 13.8788 80.9096 13.6098 81.4134 13.4318C81.9171 13.25 82.474 13.1591 83.0838 13.1591C83.5043 13.1591 83.9228 13.2083 84.3395 13.3068C84.7562 13.4053 85.1368 13.5682 85.4815 13.7955C85.8262 14.0189 86.1027 14.3239 86.3111 14.7102C86.5232 15.0966 86.6293 15.5795 86.6293 16.1591V22H84.652V20.8011H84.5838C84.4588 21.0436 84.2827 21.2708 84.0554 21.483C83.8319 21.6913 83.5497 21.8598 83.2088 21.9886C82.8717 22.1136 82.4759 22.1761 82.0213 22.1761ZM82.5554 20.6648C82.9683 20.6648 83.3262 20.5833 83.6293 20.4205C83.9323 20.2538 84.1652 20.0341 84.3281 19.7614C84.4948 19.4886 84.5781 19.1913 84.5781 18.8693V17.8409C84.5137 17.8939 84.4039 17.9432 84.2486 17.9886C84.0971 18.0341 83.9266 18.0739 83.7372 18.108C83.5478 18.142 83.3603 18.1723 83.1747 18.1989C82.9891 18.2254 82.8281 18.2481 82.6918 18.267C82.3849 18.3087 82.1103 18.3769 81.8679 18.4716C81.6255 18.5663 81.4342 18.6989 81.294 18.8693C81.1539 19.036 81.0838 19.2519 81.0838 19.517C81.0838 19.8958 81.2221 20.1818 81.4986 20.375C81.7751 20.5682 82.1274 20.6648 82.5554 20.6648Z" fill="white"/>
<path d="M169.143 23.4545V8.90909H170.075V23.4545H169.143ZM171.831 13.5625C171.778 13.0663 171.554 12.6799 171.161 12.4034C170.77 12.1269 170.263 11.9886 169.638 11.9886C169.198 11.9886 168.821 12.0549 168.507 12.1875C168.193 12.3201 167.952 12.5 167.786 12.7273C167.619 12.9545 167.534 13.214 167.53 13.5057C167.53 13.7481 167.585 13.9583 167.695 14.1364C167.808 14.3144 167.962 14.4659 168.155 14.5909C168.348 14.7121 168.562 14.8144 168.797 14.8977C169.032 14.9811 169.268 15.0511 169.507 15.108L170.598 15.3807C171.037 15.483 171.46 15.6212 171.865 15.7955C172.274 15.9697 172.64 16.1894 172.962 16.4545C173.287 16.7197 173.545 17.0398 173.734 17.4148C173.924 17.7898 174.018 18.2292 174.018 18.733C174.018 19.4148 173.844 20.0152 173.496 20.5341C173.147 21.0492 172.643 21.4527 171.984 21.7443C171.329 22.0322 170.536 22.1761 169.604 22.1761C168.698 22.1761 167.912 22.036 167.246 21.7557C166.583 21.4754 166.064 21.0663 165.689 20.5284C165.318 19.9905 165.117 19.3352 165.087 18.5625H167.161C167.191 18.9678 167.316 19.3049 167.536 19.5739C167.755 19.8428 168.041 20.0436 168.393 20.1761C168.75 20.3087 169.147 20.375 169.587 20.375C170.045 20.375 170.446 20.3068 170.791 20.1705C171.14 20.0303 171.412 19.8371 171.609 19.5909C171.806 19.3409 171.907 19.0492 171.911 18.7159C171.907 18.4129 171.818 18.1629 171.643 17.9659C171.469 17.7652 171.225 17.5985 170.911 17.4659C170.6 17.3295 170.236 17.2083 169.82 17.1023L168.496 16.7614C167.537 16.5152 166.78 16.142 166.223 15.642C165.67 15.1383 165.393 14.4697 165.393 13.6364C165.393 12.9508 165.579 12.3504 165.95 11.8352C166.325 11.3201 166.835 10.9205 167.479 10.6364C168.123 10.3485 168.852 10.2045 169.666 10.2045C170.492 10.2045 171.215 10.3485 171.837 10.6364C172.462 10.9205 172.952 11.3163 173.308 11.8239C173.664 12.3277 173.848 12.9072 173.859 13.5625H171.831ZM179.753 22V20.4773L183.793 16.517C184.179 16.1269 184.501 15.7803 184.759 15.4773C185.016 15.1742 185.209 14.8807 185.338 14.5966C185.467 14.3125 185.531 14.0095 185.531 13.6875C185.531 13.3201 185.448 13.0057 185.281 12.7443C185.115 12.4792 184.885 12.2746 184.594 12.1307C184.302 11.9867 183.971 11.9148 183.599 11.9148C183.217 11.9148 182.882 11.9943 182.594 12.1534C182.306 12.3087 182.082 12.5303 181.923 12.8182C181.768 13.1061 181.69 13.4489 181.69 13.8466H179.685C179.685 13.108 179.853 12.4659 180.19 11.9205C180.527 11.375 180.991 10.9527 181.582 10.6534C182.177 10.3542 182.859 10.2045 183.628 10.2045C184.408 10.2045 185.094 10.3504 185.685 10.642C186.276 10.9337 186.734 11.3333 187.06 11.8409C187.389 12.3485 187.554 12.928 187.554 13.5795C187.554 14.0152 187.471 14.4432 187.304 14.8636C187.137 15.2841 186.844 15.75 186.423 16.2614C186.007 16.7727 185.421 17.392 184.668 18.1193L182.662 20.1591V20.2386H187.73V22H179.753ZM193.866 22.1591C193.048 22.1591 192.321 22.0189 191.685 21.7386C191.052 21.4583 190.552 21.0682 190.185 20.5682C189.817 20.0682 189.622 19.4905 189.599 18.8352H191.736C191.755 19.1496 191.859 19.4242 192.048 19.6591C192.238 19.8902 192.49 20.0701 192.804 20.1989C193.118 20.3277 193.471 20.392 193.861 20.392C194.277 20.392 194.647 20.3201 194.969 20.1761C195.291 20.0284 195.543 19.8239 195.724 19.5625C195.906 19.3011 195.995 19 195.991 18.6591C195.995 18.3068 195.904 17.9962 195.719 17.7273C195.533 17.4583 195.264 17.2481 194.912 17.0966C194.563 16.9451 194.143 16.8693 193.651 16.8693H192.622V15.2443H193.651C194.056 15.2443 194.41 15.1742 194.713 15.0341C195.02 14.8939 195.26 14.697 195.435 14.4432C195.609 14.1856 195.694 13.8883 195.69 13.5511C195.694 13.2216 195.62 12.9356 195.469 12.6932C195.321 12.447 195.111 12.2557 194.838 12.1193C194.569 11.983 194.253 11.9148 193.889 11.9148C193.533 11.9148 193.204 11.9792 192.901 12.108C192.598 12.2367 192.353 12.4205 192.168 12.6591C191.982 12.8939 191.884 13.1742 191.872 13.5H189.844C189.859 12.8485 190.046 12.2765 190.406 11.7841C190.77 11.2879 191.255 10.9015 191.861 10.625C192.467 10.3447 193.147 10.2045 193.901 10.2045C194.677 10.2045 195.351 10.3504 195.923 10.642C196.499 10.9299 196.944 11.3182 197.259 11.8068C197.573 12.2955 197.73 12.8352 197.73 13.4261C197.734 14.0814 197.541 14.6307 197.151 15.0739C196.764 15.517 196.257 15.8068 195.628 15.9432V16.0341C196.446 16.1477 197.073 16.4508 197.509 16.9432C197.948 17.4318 198.166 18.0398 198.162 18.767C198.162 19.4186 197.976 20.0019 197.605 20.517C197.238 21.0284 196.73 21.4299 196.082 21.7216C195.438 22.0133 194.7 22.1591 193.866 22.1591ZM202.206 20.4091L202.132 21.0341C202.079 21.5114 201.984 21.9962 201.848 22.4886C201.715 22.9848 201.575 23.4413 201.428 23.858C201.28 24.2746 201.161 24.6023 201.07 24.8409H199.683C199.736 24.6098 199.808 24.2955 199.899 23.8977C199.994 23.5 200.085 23.053 200.172 22.5568C200.259 22.0606 200.318 21.5568 200.348 21.0455L200.388 20.4091H202.206ZM208.273 22.1591C207.455 22.1591 206.727 22.0189 206.091 21.7386C205.458 21.4583 204.958 21.0682 204.591 20.5682C204.223 20.0682 204.028 19.4905 204.006 18.8352H206.142C206.161 19.1496 206.265 19.4242 206.455 19.6591C206.644 19.8902 206.896 20.0701 207.21 20.1989C207.525 20.3277 207.877 20.392 208.267 20.392C208.684 20.392 209.053 20.3201 209.375 20.1761C209.697 20.0284 209.949 19.8239 210.131 19.5625C210.313 19.3011 210.402 19 210.398 18.6591C210.402 18.3068 210.311 17.9962 210.125 17.7273C209.939 17.4583 209.67 17.2481 209.318 17.0966C208.97 16.9451 208.549 16.8693 208.057 16.8693H207.028V15.2443H208.057C208.462 15.2443 208.816 15.1742 209.119 15.0341C209.426 14.8939 209.667 14.697 209.841 14.4432C210.015 14.1856 210.1 13.8883 210.097 13.5511C210.1 13.2216 210.027 12.9356 209.875 12.6932C209.727 12.447 209.517 12.2557 209.244 12.1193C208.975 11.983 208.659 11.9148 208.295 11.9148C207.939 11.9148 207.61 11.9792 207.307 12.108C207.004 12.2367 206.759 12.4205 206.574 12.6591C206.388 12.8939 206.29 13.1742 206.278 13.5H204.25C204.265 12.8485 204.453 12.2765 204.812 11.7841C205.176 11.2879 205.661 10.9015 206.267 10.625C206.873 10.3447 207.553 10.2045 208.307 10.2045C209.083 10.2045 209.758 10.3504 210.33 10.642C210.905 10.9299 211.35 11.3182 211.665 11.8068C211.979 12.2955 212.136 12.8352 212.136 13.4261C212.14 14.0814 211.947 14.6307 211.557 15.0739C211.17 15.517 210.663 15.8068 210.034 15.9432V16.0341C210.852 16.1477 211.479 16.4508 211.915 16.9432C212.354 17.4318 212.572 18.0398 212.568 18.767C212.568 19.4186 212.383 20.0019 212.011 20.517C211.644 21.0284 211.136 21.4299 210.489 21.7216C209.845 22.0133 209.106 22.1591 208.273 22.1591ZM214.632 22V10.3636H219.087C219.928 10.3636 220.626 10.4962 221.183 10.7614C221.744 11.0227 222.162 11.3807 222.439 11.8352C222.719 12.2898 222.859 12.8049 222.859 13.3807C222.859 13.8542 222.768 14.2595 222.587 14.5966C222.405 14.9299 222.161 15.2008 221.854 15.4091C221.547 15.6174 221.204 15.767 220.825 15.858V15.9716C221.238 15.9943 221.634 16.1212 222.013 16.3523C222.395 16.5795 222.708 16.9015 222.95 17.3182C223.193 17.7348 223.314 18.2386 223.314 18.8295C223.314 19.4318 223.168 19.9735 222.876 20.4545C222.585 20.9318 222.145 21.3087 221.558 21.5852C220.971 21.8617 220.232 22 219.342 22H214.632ZM216.74 20.2386H219.007C219.772 20.2386 220.323 20.0928 220.661 19.8011C221.001 19.5057 221.172 19.1269 221.172 18.6648C221.172 18.3201 221.087 18.0095 220.916 17.733C220.746 17.4527 220.503 17.233 220.189 17.0739C219.875 16.911 219.5 16.8295 219.064 16.8295H216.74V20.2386ZM216.74 15.3125H218.825C219.189 15.3125 219.517 15.2462 219.808 15.1136C220.1 14.9773 220.329 14.786 220.496 14.5398C220.666 14.2898 220.751 13.9943 220.751 13.6534C220.751 13.2027 220.592 12.8314 220.274 12.5398C219.96 12.2481 219.492 12.1023 218.871 12.1023H216.74V15.3125Z" fill="white"/>
<path d="M178.182 55L182.626 46.2102V46.1357H177.486V44.8182H184.217V46.1804L179.788 55H178.182ZM189.809 44.8182V55H188.268V46.3594H188.208L185.772 47.9503V46.4787L188.313 44.8182H189.809ZM193.929 53.608L193.855 54.1499C193.805 54.5476 193.721 54.9619 193.601 55.3928C193.485 55.8269 193.364 56.2296 193.238 56.6009C193.116 56.9721 193.015 57.267 192.935 57.4858H191.881C191.924 57.2803 191.984 57.0019 192.06 56.6506C192.136 56.3026 192.211 55.9131 192.284 55.4822C192.357 55.0514 192.411 54.6122 192.448 54.1648L192.498 53.608H193.929ZM199.194 55.1392C198.74 55.1326 198.293 55.0497 197.852 54.8906C197.414 54.7315 197.017 54.4664 196.659 54.0952C196.301 53.724 196.014 53.2251 195.799 52.5987C195.587 51.9723 195.48 51.1901 195.48 50.2521C195.48 49.3639 195.568 48.575 195.744 47.8857C195.923 47.1963 196.18 46.6146 196.515 46.1406C196.849 45.6634 197.254 45.3004 197.728 45.0518C198.202 44.8033 198.734 44.679 199.324 44.679C199.93 44.679 200.469 44.7983 200.939 45.0369C201.41 45.2756 201.791 45.6054 202.083 46.0263C202.378 46.4472 202.565 46.9261 202.645 47.4631H201.128C201.025 47.0388 200.822 46.6925 200.517 46.424C200.212 46.1555 199.814 46.0213 199.324 46.0213C198.578 46.0213 197.996 46.3461 197.578 46.9957C197.164 47.6454 196.955 48.5485 196.952 49.7053H197.027C197.202 49.4169 197.418 49.1716 197.673 48.9695C197.931 48.764 198.22 48.6065 198.538 48.4972C198.859 48.3845 199.198 48.3281 199.552 48.3281C200.142 48.3281 200.676 48.4723 201.153 48.7607C201.634 49.0457 202.016 49.4401 202.301 49.9439C202.587 50.4477 202.729 51.0244 202.729 51.674C202.729 52.3236 202.582 52.9119 202.287 53.4389C201.995 53.9659 201.584 54.3835 201.054 54.6918C200.523 54.9967 199.904 55.1458 199.194 55.1392ZM199.189 53.8466C199.58 53.8466 199.93 53.7505 200.238 53.5582C200.547 53.366 200.79 53.1075 200.969 52.7827C201.148 52.4579 201.238 52.0949 201.238 51.6939C201.238 51.3028 201.15 50.9465 200.974 50.625C200.802 50.3035 200.563 50.0483 200.258 49.8594C199.957 49.6705 199.612 49.576 199.224 49.576C198.929 49.576 198.656 49.6323 198.404 49.745C198.155 49.8577 197.936 50.0135 197.748 50.2124C197.559 50.4112 197.409 50.6399 197.3 50.8984C197.194 51.1536 197.141 51.4238 197.141 51.7088C197.141 52.09 197.229 52.4429 197.404 52.7678C197.583 53.0926 197.827 53.3544 198.135 53.5533C198.447 53.7488 198.798 53.8466 199.189 53.8466ZM207.98 55.1392C207.268 55.1392 206.638 55.0166 206.091 54.7713C205.548 54.526 205.122 54.188 204.813 53.7571C204.505 53.3262 204.353 52.8357 204.356 52.2855C204.353 51.8546 204.441 51.4586 204.619 51.0973C204.802 50.7327 205.049 50.4295 205.36 50.1875C205.672 49.9422 206.02 49.7865 206.404 49.7202V49.6605C205.897 49.5379 205.491 49.2661 205.186 48.8452C204.881 48.4242 204.731 47.9403 204.734 47.3935C204.731 46.8731 204.868 46.4091 205.146 46.0014C205.428 45.5904 205.814 45.2673 206.305 45.032C206.795 44.7966 207.354 44.679 207.98 44.679C208.6 44.679 209.154 44.7983 209.641 45.0369C210.131 45.2723 210.517 45.5954 210.799 46.0064C211.081 46.4141 211.223 46.8764 211.227 47.3935C211.223 47.9403 211.068 48.4242 210.759 48.8452C210.451 49.2661 210.05 49.5379 209.556 49.6605V49.7202C209.937 49.7865 210.28 49.9422 210.585 50.1875C210.894 50.4295 211.139 50.7327 211.321 51.0973C211.507 51.4586 211.601 51.8546 211.605 52.2855C211.601 52.8357 211.445 53.3262 211.137 53.7571C210.829 54.188 210.401 54.526 209.855 54.7713C209.311 55.0166 208.686 55.1392 207.98 55.1392ZM207.98 53.8814C208.401 53.8814 208.766 53.8118 209.074 53.6726C209.382 53.5301 209.621 53.3329 209.79 53.081C209.959 52.8258 210.045 52.5275 210.048 52.1861C210.045 51.8314 209.952 51.5182 209.77 51.2464C209.591 50.9747 209.347 50.7609 209.039 50.6051C208.731 50.4493 208.378 50.3714 207.98 50.3714C207.579 50.3714 207.223 50.4493 206.911 50.6051C206.6 50.7609 206.355 50.9747 206.176 51.2464C205.997 51.5182 205.909 51.8314 205.912 52.1861C205.909 52.5275 205.99 52.8258 206.156 53.081C206.325 53.3329 206.565 53.5301 206.877 53.6726C207.188 53.8118 207.556 53.8814 207.98 53.8814ZM207.98 49.1435C208.318 49.1435 208.618 49.0755 208.88 48.9396C209.142 48.8037 209.347 48.6148 209.497 48.3729C209.649 48.1309 209.727 47.8475 209.73 47.5227C209.727 47.2045 209.651 46.9261 209.502 46.6875C209.356 46.4489 209.152 46.2649 208.89 46.1357C208.628 46.0031 208.325 45.9368 207.98 45.9368C207.629 45.9368 207.321 46.0031 207.056 46.1357C206.794 46.2649 206.59 46.4489 206.444 46.6875C206.298 46.9261 206.227 47.2045 206.23 47.5227C206.227 47.8475 206.3 48.1309 206.449 48.3729C206.598 48.6148 206.804 48.8037 207.066 48.9396C207.331 49.0755 207.636 49.1435 207.98 49.1435ZM218.7 53.0909V52.554C218.7 52.1695 218.78 51.8182 218.939 51.5C219.101 51.1785 219.337 50.9216 219.645 50.7294C219.956 50.5339 220.333 50.4361 220.773 50.4361C221.224 50.4361 221.602 50.5322 221.907 50.7244C222.212 50.9167 222.442 51.1735 222.598 51.495C222.757 51.8165 222.837 52.1695 222.837 52.554V53.0909C222.837 53.4754 222.757 53.8284 222.598 54.1499C222.439 54.468 222.205 54.7249 221.897 54.9205C221.592 55.1127 221.218 55.2088 220.773 55.2088C220.326 55.2088 219.948 55.1127 219.64 54.9205C219.332 54.7249 219.098 54.468 218.939 54.1499C218.78 53.8284 218.7 53.4754 218.7 53.0909ZM219.859 52.554V53.0909C219.859 53.3759 219.927 53.6345 220.062 53.8665C220.198 54.0985 220.435 54.2145 220.773 54.2145C221.108 54.2145 221.342 54.0985 221.474 53.8665C221.607 53.6345 221.673 53.3759 221.673 53.0909V52.554C221.673 52.2689 221.609 52.0104 221.479 51.7784C221.353 51.5464 221.118 51.4304 220.773 51.4304C220.442 51.4304 220.207 51.5464 220.067 51.7784C219.928 52.0104 219.859 52.2689 219.859 52.554ZM213.58 47.2642V46.7273C213.58 46.3428 213.659 45.9898 213.818 45.6683C213.981 45.3468 214.216 45.09 214.524 44.8977C214.836 44.7055 215.212 44.6094 215.653 44.6094C216.103 44.6094 216.481 44.7055 216.786 44.8977C217.091 45.09 217.321 45.3468 217.477 45.6683C217.633 45.9898 217.711 46.3428 217.711 46.7273V47.2642C217.711 47.6487 217.631 48.0017 217.472 48.3232C217.317 48.6413 217.085 48.8982 216.776 49.0938C216.471 49.286 216.097 49.3821 215.653 49.3821C215.202 49.3821 214.822 49.286 214.514 49.0938C214.209 48.8982 213.977 48.6413 213.818 48.3232C213.659 48.0017 213.58 47.6487 213.58 47.2642ZM214.743 46.7273V47.2642C214.743 47.5492 214.809 47.8078 214.942 48.0398C215.078 48.2718 215.315 48.3878 215.653 48.3878C215.984 48.3878 216.216 48.2718 216.349 48.0398C216.485 47.8078 216.553 47.5492 216.553 47.2642V46.7273C216.553 46.4422 216.488 46.1837 216.359 45.9517C216.229 45.7197 215.994 45.6037 215.653 45.6037C215.321 45.6037 215.086 45.7197 214.947 45.9517C214.811 46.1837 214.743 46.4422 214.743 46.7273ZM214.052 55L221.052 44.8182H222.24L215.24 55H214.052Z" fill="white"/>
<rect y="46" width="168" height="8" rx="4" fill="#353535"/>
<rect y="46" width="120" height="8" rx="4" fill="url(#paint0_linear_0_1847)"/>
<defs>
<linearGradient id="paint0_linear_0_1847" x1="124" y1="19.5" x2="-8.50002" y2="71.5" gradientUnits="userSpaceOnUse">
<stop stop-color="#FB035C"/>
<stop offset="1" stop-color="#FA9FA5"/>
</linearGradient>
<clipPath id="clip0_0_1847">
<rect width="24" height="24" fill="white" transform="translate(4 4)"/>
</clipPath>
</defs>
</svg>
