<svg width="32" height="32" viewBox="0 0 32 32" fill="none" xmlns="http://www.w3.org/2000/svg">
<path d="M9.55972 30.3327C6.38638 30.3327 3.78644 28.0261 3.78644 25.1861V22.4661C3.78644 21.9194 4.23977 21.4661 4.78644 21.4661C5.3331 21.4661 5.78644 21.9194 5.78644 22.4661C5.78644 24.1327 7.39972 25.3861 9.55972 25.3861C11.7197 25.3861 13.3331 24.1327 13.3331 22.4661C13.3331 21.9194 13.7864 21.4661 14.3331 21.4661C14.8797 21.4661 15.3331 21.9194 15.3331 22.4661V25.1861C15.3331 28.0261 12.7464 30.3327 9.55972 30.3327ZM6.13304 26.4927C6.7197 27.5861 8.03972 28.3327 9.55972 28.3327C11.0797 28.3327 12.3997 27.5727 12.9864 26.4927C12.0397 27.0661 10.8664 27.3994 9.55972 27.3994C8.25305 27.3994 7.0797 27.0661 6.13304 26.4927Z" fill="white"/>
<path d="M9.55972 23.7325C7.37305 23.7325 5.41309 22.7325 4.43976 21.1458C4.01309 20.4525 3.78644 19.6391 3.78644 18.8125C3.78644 17.4125 4.39976 16.1058 5.51976 15.1325C7.67976 13.2392 11.3997 13.2392 13.5731 15.1193C14.6931 16.1059 15.3197 17.4125 15.3197 18.8125C15.3197 19.6391 15.0931 20.4525 14.6664 21.1458C13.7064 22.7325 11.7464 23.7325 9.55972 23.7325ZM9.55972 15.6659C8.51972 15.6659 7.55974 16.0125 6.83974 16.6391C6.15974 17.2258 5.78644 17.9991 5.78644 18.8125C5.78644 19.2791 5.90638 19.7059 6.14638 20.1059C6.75972 21.1193 8.06638 21.7459 9.55972 21.7459C11.0531 21.7459 12.3597 21.1193 12.9597 20.1193C13.1997 19.7326 13.3197 19.2926 13.3197 18.8259C13.3197 18.0126 12.9464 17.2391 12.2664 16.6391C11.5598 16.0125 10.5997 15.6659 9.55972 15.6659Z" fill="white"/>
<path d="M9.55972 27.4C6.26638 27.4 3.78644 25.28 3.78644 22.48V18.8133C3.78644 15.9733 6.37305 13.6666 9.55972 13.6666C11.0664 13.6666 12.5064 14.1866 13.5864 15.12C14.7064 16.1066 15.3331 17.4133 15.3331 18.8133V22.48C15.3331 25.28 12.8531 27.4 9.55972 27.4ZM9.55972 15.6666C7.47972 15.6666 5.78644 17.08 5.78644 18.8133V22.48C5.78644 24.1466 7.39972 25.4 9.55972 25.4C11.7197 25.4 13.3331 24.1466 13.3331 22.48V18.8133C13.3331 18 12.9598 17.2266 12.2798 16.6266C11.5598 16.0133 10.5997 15.6666 9.55972 15.6666Z" fill="white"/>
<path d="M25.3865 19.7335C23.3732 19.7335 21.6665 18.2402 21.5065 16.3202C21.3999 15.2135 21.7999 14.1335 22.5999 13.3468C23.2665 12.6535 24.2132 12.2668 25.2132 12.2668H27.9999C29.3199 12.3068 30.3332 13.3468 30.3332 14.6268V17.3735C30.3332 18.6535 29.3199 19.6935 28.0399 19.7335H25.3865ZM27.9599 14.2668H25.2265C24.7599 14.2668 24.3332 14.4402 24.0265 14.7602C23.6399 15.1335 23.4532 15.6402 23.5065 16.1468C23.5732 17.0268 24.4265 17.7335 25.3865 17.7335H27.9999C28.1732 17.7335 28.3332 17.5735 28.3332 17.3735V14.6268C28.3332 14.4268 28.1732 14.2802 27.9599 14.2668Z" fill="white"/>
<path d="M21.3336 28.3333H18.0003C17.4536 28.3333 17.0003 27.88 17.0003 27.3333C17.0003 26.7866 17.4536 26.3333 18.0003 26.3333H21.3336C24.7736 26.3333 27.0003 24.1066 27.0003 20.6666V19.7333H25.3869C23.3736 19.7333 21.6669 18.24 21.5069 16.32C21.4003 15.2133 21.8004 14.1333 22.6004 13.3466C23.2671 12.6533 24.2136 12.2666 25.2136 12.2666H26.9869V11.3333C26.9869 8.21329 25.1604 6.0666 22.2004 5.71993C21.8804 5.6666 21.6003 5.66663 21.3203 5.66663H9.32029C9.00029 5.66663 8.69361 5.69328 8.38695 5.73328C5.45361 6.10661 3.65363 8.23996 3.65363 11.3333V14C3.65363 14.5466 3.20029 15 2.65363 15C2.10696 15 1.65363 14.5466 1.65363 14V11.3333C1.65363 7.22663 4.18701 4.25331 8.12035 3.75997C8.48035 3.70664 8.89363 3.66663 9.32029 3.66663H21.3203C21.6403 3.66663 22.0536 3.67996 22.4803 3.74663C26.4136 4.19996 28.9869 7.18663 28.9869 11.3333V13.2666C28.9869 13.8133 28.5336 14.2666 27.9869 14.2666H25.2136C24.7469 14.2666 24.3204 14.44 24.0137 14.76C23.6271 15.1333 23.4403 15.64 23.4936 16.1466C23.5603 17.0266 24.4137 17.7333 25.3737 17.7333H28.0003C28.5469 17.7333 29.0003 18.1866 29.0003 18.7333V20.6666C29.0003 25.2533 25.9203 28.3333 21.3336 28.3333Z" fill="white"/>
</svg>
